<?xml version="1.0" encoding="UTF-8"?>
<svg xmlns="http://www.w3.org/2000/svg" xmlns:xlink="http://www.w3.org/1999/xlink" width="128px" height="128px" viewBox="-20 -20 168 168" version="1.1">
<path fill="#ffffff" d="M 64 0 C 46.617188 0 44.4375 0.0742188 37.613281 0.386719 C 30.800781 0.695312 26.148438 1.777344 22.078125 3.359375 C 17.867188 4.996094 14.300781 7.183594 10.742188 10.742188 C 7.183594 14.300781 4.996094 17.867188 3.359375 22.078125 C 1.777344 26.148438 0.695312 30.800781 0.386719 37.613281 C 0.0742188 44.4375 0 46.617188 0 64 C 0 81.378906 0.0742188 83.558594 0.386719 90.386719 C 0.695312 97.199219 1.777344 101.851562 3.359375 105.921875 C 4.996094 110.128906 7.183594 113.699219 10.742188 117.257812 C 14.300781 120.8125 17.867188 123.003906 22.078125 124.636719 C 26.148438 126.21875 30.800781 127.300781 37.613281 127.613281 C 44.4375 127.925781 46.617188 127.996094 64 127.996094 C 81.378906 127.996094 83.558594 127.925781 90.386719 127.613281 C 97.199219 127.300781 101.851562 126.21875 105.921875 124.636719 C 110.128906 123.003906 113.699219 120.8125 117.257812 117.257812 C 120.8125 113.699219 123.003906 110.128906 124.636719 105.921875 C 126.21875 101.851562 127.300781 97.199219 127.613281 90.386719 C 127.925781 83.558594 127.996094 81.378906 127.996094 64 C 127.996094 46.617188 127.925781 44.4375 127.613281 37.613281 C 127.300781 30.800781 126.21875 26.148438 124.636719 22.078125 C 123.003906 17.867188 120.8125 14.300781 117.257812 10.742188 C 113.699219 7.183594 110.128906 4.996094 105.921875 3.359375 C 101.851562 1.777344 97.199219 0.695312 90.386719 0.386719 C 83.558594 0.0742188 81.378906 0 64 0 Z M 64 11.53125 C 81.085938 11.53125 83.113281 11.597656 89.859375 11.90625 C 96.101562 12.1875 99.488281 13.230469 101.742188 14.109375 C 104.730469 15.269531 106.863281 16.65625 109.101562 18.894531 C 111.34375 21.136719 112.730469 23.265625 113.890625 26.253906 C 114.765625 28.507812 115.808594 31.898438 116.09375 38.136719 C 116.402344 44.886719 116.464844 46.910156 116.464844 64 C 116.464844 81.085938 116.402344 83.113281 116.09375 89.859375 C 115.808594 96.101562 114.765625 99.488281 113.890625 101.742188 C 112.730469 104.730469 111.34375 106.863281 109.101562 109.101562 C 106.863281 111.34375 104.730469 112.730469 101.742188 113.890625 C 99.488281 114.765625 96.101562 115.808594 89.859375 116.09375 C 83.113281 116.402344 81.089844 116.464844 64 116.464844 C 46.910156 116.464844 44.886719 116.402344 38.136719 116.09375 C 31.898438 115.808594 28.507812 114.765625 26.253906 113.890625 C 23.265625 112.730469 21.136719 111.34375 18.894531 109.101562 C 16.65625 106.863281 15.269531 104.730469 14.109375 101.742188 C 13.230469 99.488281 12.1875 96.101562 11.90625 89.859375 C 11.597656 83.113281 11.53125 81.085938 11.53125 64 C 11.53125 46.910156 11.597656 44.886719 11.90625 38.136719 C 12.1875 31.898438 13.230469 28.507812 14.109375 26.253906 C 15.269531 23.265625 16.65625 21.136719 18.894531 18.894531 C 21.136719 16.65625 23.265625 15.269531 26.253906 14.109375 C 28.507812 13.230469 31.898438 12.1875 38.136719 11.90625 C 44.886719 11.597656 46.910156 11.53125 64 11.53125 "/>
<path fill="#ffffff" d="M 64 85.332031 C 52.21875 85.332031 42.664062 75.78125 42.664062 64 C 42.664062 52.21875 52.21875 42.664062 64 42.664062 C 75.78125 42.664062 85.332031 52.21875 85.332031 64 C 85.332031 75.78125 75.78125 85.332031 64 85.332031 Z M 64 31.132812 C 45.847656 31.132812 31.132812 45.847656 31.132812 64 C 31.132812 82.148438 45.847656 96.863281 64 96.863281 C 82.148438 96.863281 96.863281 82.148438 96.863281 64 C 96.863281 45.847656 82.148438 31.132812 64 31.132812 M 105.839844 29.835938 C 105.839844 34.078125 102.402344 37.515625 98.160156 37.515625 C 93.921875 37.515625 90.480469 34.078125 90.480469 29.835938 C 90.480469 25.59375 93.921875 22.15625 98.160156 22.15625 C 102.402344 22.15625 105.839844 25.59375 105.839844 29.835938 "/>
</svg>
