<?xml version="1.0" encoding="UTF-8"?>
<svg xmlns="http://www.w3.org/2000/svg" xmlns:xlink="http://www.w3.org/1999/xlink" width="128px" height="128px" viewBox="-20 -20 168 168" version="1.1">
<path fill="#ffffff" d="M 0 17.050781 C 0 12.933594 1.441406 9.535156 4.324219 6.855469 C 7.207031 4.179688 10.953125 2.839844 15.566406 2.839844 C 20.097656 2.839844 23.761719 4.160156 26.5625 6.796875 C 29.445312 9.511719 30.886719 13.054688 30.886719 17.421875 C 30.886719 21.375 29.488281 24.667969 26.6875 27.304688 C 23.804688 30.023438 20.015625 31.382812 15.320312 31.382812 L 15.195312 31.382812 C 10.667969 31.382812 7 30.023438 4.199219 27.304688 C 1.398438 24.585938 0 21.167969 0 17.050781 Z M 1.605469 125.160156 L 1.605469 42.625 L 29.035156 42.625 L 29.035156 125.160156 Z M 44.230469 125.160156 L 71.660156 125.160156 L 71.660156 79.074219 C 71.660156 76.191406 71.988281 73.964844 72.648438 72.402344 C 73.800781 69.601562 75.550781 67.234375 77.898438 65.296875 C 80.246094 63.363281 83.191406 62.394531 86.734375 62.394531 C 95.957031 62.394531 100.570312 68.613281 100.570312 81.050781 L 100.570312 125.160156 L 128 125.160156 L 128 77.835938 C 128 65.648438 125.117188 56.402344 119.351562 50.101562 C 113.585938 43.800781 105.964844 40.648438 96.496094 40.648438 C 85.867188 40.648438 77.589844 45.21875 71.660156 54.363281 L 71.660156 54.609375 L 71.535156 54.609375 L 71.660156 54.363281 L 71.660156 42.625 L 44.230469 42.625 C 44.394531 45.261719 44.480469 53.457031 44.480469 67.210938 C 44.480469 80.96875 44.394531 100.28125 44.230469 125.160156 Z M 44.230469 125.160156 "/>
</svg>
