<?xml version="1.0" encoding="UTF-8"?>
<svg xmlns="http://www.w3.org/2000/svg" xmlns:xlink="http://www.w3.org/1999/xlink" width="128px" height="128px" viewBox="-20 -20 168 168" version="1.1">
<path fill="#ffffff" d="M 117.09375 11.601562 C 117.09375 11.601562 128.929688 6.988281 127.941406 18.195312 C 127.613281 22.8125 124.652344 38.964844 122.351562 56.433594 L 114.460938 108.1875 C 114.460938 108.1875 113.804688 115.769531 107.886719 117.085938 C 101.96875 118.40625 93.09375 112.472656 91.449219 111.152344 C 90.132812 110.164062 66.792969 95.332031 58.574219 88.078125 C 56.273438 86.101562 53.640625 82.144531 58.902344 77.53125 L 93.421875 44.566406 C 97.367188 40.609375 101.3125 31.382812 84.875 42.589844 L 38.847656 73.90625 C 38.847656 73.90625 33.589844 77.203125 23.726562 74.234375 L 2.355469 67.640625 C 2.355469 67.640625 -5.535156 62.695312 7.945312 57.753906 C 40.820312 42.257812 81.257812 26.4375 117.09375 11.601562 Z M 117.09375 11.601562 "/>
</svg>
