<?xml version="1.0" encoding="UTF-8" standalone="no"?>
<svg
   viewBox="0 0 546.47656 193.33985"
   version="1.1"
   id="svg4"
   width="546.47656"
   height="193.33984"
   xmlns="http://www.w3.org/2000/svg"
   xmlns:svg="http://www.w3.org/2000/svg">
  <defs
     id="defs4" />
  <g
     id="g20"
     transform="translate(84055.735,-37028.799)">
    <g
       id="g3"
       transform="matrix(0.52702065,0,0,0.52702065,-83691.978,36704.443)">
      <path
         fill="#9e91ec"
         d="m -690.09434,762.76466 c 15.414,-9.731 30.281,-21.36 44.278,-33.958 38.261,-34.434 66.476,-72.906 76.519,-87.977 l 16.918,-25.375 18.035,24.594 c 19.352,26.387 49.426,65.211 82.672,97.258 16.621,16.023 33.512,29.84 49.762,39.543 16.441,9.813 30.664,14.48 42.363,14.48 h 94.945 c -1.43557,14.48393 -4.35694,28.78181 -8.718,42.668 h -86.227 c -22.43,0 -44.387,-8.664 -64.234,-20.515 -20.04,-11.965 -39.547,-28.149 -57.504,-45.457 -26.653,-25.696 -51.04,-55.004 -69.918,-79.422 -15.461,20.098 -38.262,46.89 -66.07,71.918 -19.97,17.973 -43.376,35.812 -69.204,49.414 -2.49091,-13.17435 -3.74105,-26.55324 -3.734,-39.961 0,-2.414 0.039,-4.82 0.117,-7.21 z"
         id="path1-5" />
      <path
         fill="#91aaec"
         d="m -674.27434,851.02966 c 10.833,-5.145 21.278,-10.793 31.188,-16.696 38.578,-22.964 67.004,-50.722 76.309,-60.21 l 14.523,-14.817 15.215,14.11 c 2.84,2.632 5.883,5.495 9.105,8.527 18.473,17.367 42.88,40.32 69.559,58.394 32.004,21.68 63.883,36.328 90.672,36.328 h 75.605 a 214.237,214.237 0 0 1 -32.453,42.664 h -43.152 c -40.137,0 -81.008,-20.91 -114.606,-43.671 -23.047,-15.614 -44.285,-34.954 -61.566,-50.688 -2.61,-2.379 -5.129,-4.672 -7.55,-6.86 l -0.27,0.235 c -15.829,13.863 -40.043,35.074 -69.563,52.652 -10.246,6.094 -21.258,12.106 -32.89,17.7 a 212.45,212.45 0 0 1 -20.126,-37.668 z m 0,0"
         id="path2-5" />
      <path
         fill="#91d6ec"
         d="m -627.58934,920.96266 c 31.62,-16.398 54.483,-32.91 62.554,-39.492 l 12.863,-10.496 13.336,9.89 c 19.102,14.169 47.289,34.712 78.656,51.712 26.594,14.414 53.707,25.285 78.293,28.468 a 211.912,211.912 0 0 1 -74.207,21.262 c -8.418,-3.844 -16.59,-7.977 -24.414,-12.219 -27.371,-14.832 -52.203,-31.949 -70.894,-45.511 -9.97,7.074 -23.637,16.023 -40.106,25.347 a 214.215,214.215 0 0 1 -36.082,-28.96 z m 0,0"
         id="path3-1" />
      <path
         fill="#7a56a7"
         d="m -321.90234,748.66566 -61.032,-84.714 -34.125,47.375 c 13.399,12.468 25.93,22.265 37.024,28.886 13.023,7.778 19.515,8.453 20.488,8.453 z m 0,0"
         id="path4-7" />
      <g
         id="text19"
         style="font-size:66.6667px;font-family:'Albert Sans';-inkscape-font-specification:'Albert Sans'"
         transform="matrix(1.8974589,0,0,1.8974589,158802.08,-69645.17)"
         aria-label="Libre &#10;MobileOS">
        <path
           d="m -83792.516,37063.099 v 42 h 21.8 v 4.667 h -27.133 v -46.667 z m 29.8,13.333 h 4.934 v 33.334 h -4.934 z m 2.534,-6.666 q -1.534,0 -2.534,-1 -1,-1 -1,-2.467 0,-1.533 1,-2.533 1,-1 2.534,-1 1.4,0 2.4,1 1.066,1 1.066,2.533 0,1.467 -1.066,2.467 -1,1 -2.4,1 z m 18.133,13.4 q 1.467,-3.067 4.6,-5.134 3.133,-2.066 7.933,-2.066 4.6,0 8,2.133 3.467,2.133 5.334,6 1.933,3.8 1.933,9 0,5.2 -1.933,9.067 -1.934,3.866 -5.4,6 -3.4,2.066 -7.934,2.066 -4.533,0 -7.533,-1.933 -3,-1.933 -4.533,-4.733 l -0.334,6.2 h -4.6 v -48 h 5 v 21.466 z m 22.4,9.933 q 0,-5.733 -3,-9.067 -2.933,-3.4 -7.933,-3.4 -3.134,0 -5.667,1.534 -2.467,1.466 -3.867,4.266 -1.4,2.734 -1.4,6.667 0,3.933 1.4,6.733 1.4,2.8 3.867,4.267 2.533,1.467 5.667,1.467 5,0 7.933,-3.334 3,-3.4 3,-9.133 z m 13.533,-16.667 h 4.6 l 0.267,4.867 q 1.333,-1.8 3.2,-3.067 1.933,-1.266 4.2,-1.733 2.333,-0.533 4.933,-0.07 v 5 q -2.8,-0.533 -5.066,0 -2.2,0.534 -3.8,2 -1.6,1.467 -2.467,3.734 -0.867,2.2 -0.867,5.133 v 17.467 h -5 z m 37.334,33.8 q -4.667,0 -8.333,-2.266 -3.6,-2.267 -5.667,-6.2 -2.067,-3.934 -2.067,-9 0,-4.867 2.067,-8.667 2.067,-3.8 5.667,-5.933 3.6,-2.2 8.2,-2.2 4.533,0 8.066,2 3.6,2 5.6,5.533 2,3.533 1.867,8.067 0,0.733 -0.07,1.533 -0.07,0.8 -0.133,1.733 h -25.8 q 0.133,3.134 1.533,5.534 1.4,2.4 3.667,3.8 2.333,1.333 5.267,1.333 3.866,0 6.533,-1.467 2.733,-1.466 3.933,-4.2 l 4.334,1.734 q -2,4.2 -5.8,6.466 -3.8,2.2 -8.867,2.2 z m 9.933,-19.733 q 0.07,-2.867 -1.266,-5.067 -1.267,-2.2 -3.6,-3.466 -2.334,-1.267 -5.4,-1.267 -2.667,0 -4.867,1.267 -2.2,1.266 -3.667,3.533 -1.4,2.2 -1.666,5 z"
           id="path20" />
        <path
           d="m -83792.516,37193.099 h -5.333 v -46.667 h 5.867 l 17.333,39.334 17.267,-39.334 h 5.8 v 46.667 h -5.334 v -36.133 l -15.866,36.133 h -3.8 l -15.934,-36.133 z m 66.134,0.467 q -4.734,0 -8.467,-2.067 -3.733,-2.067 -5.867,-5.867 -2.133,-3.866 -2.133,-9.133 0,-5.333 2.133,-9.2 2.2,-3.867 5.934,-5.933 3.8,-2.067 8.533,-2.067 4.733,0 8.467,2.067 3.8,2.066 5.933,5.933 2.2,3.8 2.2,9.067 0,5.333 -2.2,9.2 -2.2,3.866 -6,5.933 -3.8,2.067 -8.533,2.067 z m -0.07,-4.734 q 2.933,0 5.533,-1.266 2.6,-1.334 4.2,-4.067 1.667,-2.8 1.667,-7.067 0,-4.333 -1.6,-7.066 -1.6,-2.734 -4.2,-4 -2.533,-1.334 -5.467,-1.334 -2.933,0 -5.466,1.334 -2.534,1.266 -4.134,4.066 -1.533,2.734 -1.533,7 0,4.334 1.533,7.067 1.534,2.733 4,4.067 2.534,1.266 5.467,1.266 z m 29.467,-22.333 q 1.466,-3.067 4.6,-5.133 3.133,-2.067 7.933,-2.067 4.6,0 8,2.133 3.467,2.134 5.333,6 1.934,3.8 1.934,9 0,5.2 -1.934,9.067 -1.933,3.867 -5.4,6 -3.4,2.067 -7.933,2.067 -4.533,0 -7.533,-1.934 -3,-1.933 -4.534,-4.733 l -0.333,6.2 h -4.6 v -48 h 5 v 21.467 z m 22.4,9.933 q 0,-5.733 -3,-9.066 -2.934,-3.4 -7.934,-3.4 -3.133,0 -5.666,1.533 -2.467,1.467 -3.867,4.267 -1.4,2.733 -1.4,6.666 0,3.934 1.4,6.734 1.4,2.8 3.867,4.266 2.533,1.467 5.666,1.467 5,0 7.934,-3.333 3,-3.4 3,-9.134 z m 14.533,-16.666 h 4.934 v 33.333 h -4.934 z m 2.534,-6.667 q -1.534,0 -2.534,-1 -1,-1 -1,-2.467 0,-1.533 1,-2.533 1,-1 2.534,-1 1.4,0 2.4,1 1.066,1 1.066,2.533 0,1.467 -1.066,2.467 -1,1 -2.4,1 z m 13.666,-8 h 5 v 48 h -5 z m 29.2,48.467 q -4.666,0 -8.333,-2.267 -3.6,-2.267 -5.667,-6.2 -2.066,-3.933 -2.066,-9 0,-4.867 2.066,-8.667 2.067,-3.8 5.667,-5.933 3.6,-2.2 8.2,-2.2 4.533,0 8.067,2 3.6,2 5.6,5.533 2,3.534 1.866,8.067 0,0.733 -0.07,1.533 -0.07,0.8 -0.134,1.734 h -25.8 q 0.134,3.133 1.534,5.533 1.4,2.4 3.666,3.8 2.334,1.333 5.267,1.333 3.867,0 6.533,-1.466 2.734,-1.467 3.934,-4.2 l 4.333,1.733 q -2,4.2 -5.8,6.467 -3.8,2.2 -8.867,2.2 z m 9.934,-19.734 q 0.07,-2.866 -1.267,-5.066 -1.267,-2.2 -3.6,-3.467 -2.333,-1.267 -5.4,-1.267 -2.667,0 -4.867,1.267 -2.2,1.267 -3.666,3.533 -1.4,2.2 -1.667,5 z m 34.666,19.734 q -4.933,0 -9.2,-1.734 -4.2,-1.733 -7.4,-4.866 -3.133,-3.2 -4.933,-7.534 -1.733,-4.4 -1.733,-9.666 0,-5.267 1.733,-9.6 1.8,-4.4 4.933,-7.534 3.2,-3.2 7.4,-4.933 4.267,-1.733 9.2,-1.733 4.867,0 9.067,1.733 4.267,1.733 7.4,4.933 3.133,3.134 4.867,7.534 1.8,4.333 1.8,9.6 0,5.266 -1.8,9.666 -1.734,4.334 -4.867,7.534 -3.133,3.133 -7.4,4.866 -4.2,1.734 -9.067,1.734 z m 0,-4.667 q 5,0 9,-2.333 4,-2.334 6.334,-6.6 2.333,-4.334 2.333,-10.2 0,-5.934 -2.333,-10.2 -2.334,-4.334 -6.334,-6.6 -4,-2.334 -9,-2.334 -5.066,0 -9.133,2.334 -4,2.266 -6.333,6.6 -2.334,4.266 -2.334,10.2 0,5.866 2.334,10.2 2.333,4.266 6.333,6.6 4.067,2.333 9.133,2.333 z m 34.2,-7.667 q 0.4,1.8 1.667,3.6 1.333,1.734 3.6,2.934 2.333,1.133 5.933,1.133 5.134,0 7.6,-2.4 2.467,-2.4 2.467,-5.667 0,-2.6 -1.4,-4.266 -1.4,-1.667 -3.8,-2.734 -2.4,-1.133 -5.4,-2 -2.667,-0.733 -5.333,-1.6 -2.6,-0.933 -4.734,-2.266 -2.133,-1.4 -3.4,-3.6 -1.266,-2.2 -1.266,-5.467 0,-3.933 1.866,-6.8 1.867,-2.933 5.267,-4.533 3.4,-1.6 7.933,-1.6 3.934,0 6.867,1.133 2.933,1.133 4.867,3.2 2,2 2.933,4.667 l -4.733,1.8 q -0.467,-1.534 -1.8,-2.934 -1.334,-1.466 -3.467,-2.4 -2.133,-0.933 -4.867,-0.933 -2.666,0 -4.866,0.933 -2.134,0.934 -3.4,2.667 -1.267,1.733 -1.267,4.2 0,2.667 1.467,4.267 1.533,1.533 4,2.533 2.533,0.933 5.533,1.8 2.733,0.867 5.267,1.867 2.6,1 4.6,2.466 2.066,1.467 3.266,3.667 1.2,2.2 1.2,5.4 0,3.533 -1.666,6.6 -1.667,3 -5.067,4.867 -3.333,1.8 -8.6,1.8 -4.4,0 -7.733,-1.334 -3.334,-1.4 -5.467,-3.733 -2.133,-2.333 -2.933,-5.333 z"
           id="path21" />
      </g>
    </g>
  </g>
</svg>
