<?xml version="1.0" encoding="UTF-8" standalone="no"?>
<!-- Created with Inkscape (http://www.inkscape.org/) -->

<svg
   version="1.1"
   id="svg1"
   width="162.26746"
   height="69.574219"
   viewBox="0 0 162.26746 69.574219"
   xmlns="http://www.w3.org/2000/svg"
   xmlns:svg="http://www.w3.org/2000/svg">
  <defs
     id="defs1" />
  <g
     id="g1"
     transform="translate(-1313.9594,-323.43271)">
    <path
       d="m 1363.8962,389.36233 c 7.7054,-3.79373 12.9943,-9.21549 16.7008,-17.1203 2.2016,-4.69534 2.6342,-7.01853 2.6298,-14.12001 -0.01,-10.6307 -2.7895,-17.22638 -10.449,-24.7661 -13.4409,-13.23051 -34.0782,-13.23105 -48.1928,-0.001 -7.1045,6.65917 -11.4905,18.39252 -10.482,28.04139 2.5611,24.50319 27.9101,38.74043 49.7932,27.96628 z m 92.0324,0.56346 c 7.2507,-3.36553 14.2193,-10.32386 17.6333,-17.60727 2.2396,-4.77781 2.6694,-7.06733 2.6649,-14.1965 -0.01,-9.95528 -2.6844,-16.92862 -8.947,-23.29612 -16.7847,-17.06599 -43.2948,-14.50093 -56.0911,5.42726 -11.8803,18.5018 -2.6871,43.41112 18.8433,51.05649 7.5367,2.67629 18.4001,2.09577 25.8966,-1.38386 z"
       style="fill:#000000"
       id="path1-8" />
  </g>
</svg>
