<?xml version="1.0" encoding="UTF-8" standalone="no"?>
<!-- Created with Inkscape (http://www.inkscape.org/) -->

<svg
   version="1.1"
   id="svg1"
   width="563.91687"
   height="553.216"
   viewBox="0 0 563.91687 553.216"
   xmlns="http://www.w3.org/2000/svg"
   xmlns:svg="http://www.w3.org/2000/svg">
  <defs
     id="defs1" />
  <g
     id="g1"
     transform="translate(-386.0831,-127.63822)">
    <path
       style="fill:#ffffff"
       d="m 629,680.35041 c -1.925,-0.18124 -9.125,-0.8154 -16,-1.40925 -48.23431,-4.16639 -85.46804,-18.52355 -124,-47.81386 -22.58638,-17.16918 -38.78804,-33.08158 -51.2474,-50.33246 -3.98893,-5.52296 -10.78203,-14.74493 -15.09578,-20.49327 -15.83337,-21.09896 -24.23205,-38.8255 -30.51999,-64.4165 -4.25395,-17.31298 -5.34605,-26.23943 -5.85965,-47.89494 -0.44343,-18.69695 -0.22354,-23.46211 1.68147,-36.43821 5.6579,-38.53921 14.77169,-66.97807 32.37496,-101.02351 16.31872,-31.56109 36.83552,-59.59098 62.66639,-85.61433 40.16863,-40.46794 88.50244,-70.50353 139,-86.37736 40.55738,-12.74915 88.90017,-14.42914 127.35353,-4.42573 11.76159,3.0597 24.67067,8.65572 45.93937,19.91445 27.73278,14.68054 41.44614,23.98952 62.17056,42.20293 28.93737,25.43126 48.58006,50.70294 65.02362,83.65737 C 941.69296,318.37612 950,354.22728 950,398.62476 c 0,35.29689 -3.55503,58.20213 -14.3372,92.37524 -4.87652,15.45571 -18.0456,42.91065 -29.38577,61.2636 -27.14374,43.92943 -73.04072,84.70866 -120.44372,107.01362 C 754.599,673.97417 710.85352,681.22109 655.67136,680.83996 642.92711,680.75194 630.925,680.53164 629,680.35041 Z m 75.5,-4.94502 c 47.48586,-4.46624 76.74567,-14.54348 114,-39.26225 20.05225,-13.30494 29.32011,-20.88846 46.08612,-37.71043 43.29365,-43.43819 71.40669,-100.04923 79.95141,-160.99769 2.21684,-15.81244 2.99449,-47.44785 1.52279,-61.94803 C 942.38327,339.2583 933.3649,308.81397 916.91094,277.08422 903.27337,250.78559 890.09022,232.93777 868.57228,211.64165 847.51112,190.7976 827.34364,175.59716 804,162.97285 777.94431,148.88186 774.12522,146.94388 765.81668,143.59691 756.10515,139.68477 742.97922,135.97167 729.5,133.32355 c -7.14996,-1.40468 -14.13899,-1.76723 -34,-1.7637 -26.76105,0.005 -36.72998,1.17089 -59.5,6.96018 -62.02779,15.7706 -125.21288,56.90553 -170.52083,111.01295 -22.9916,27.45691 -43.9029,62.3894 -55.95127,93.46702 -21.08434,54.38506 -25.68727,107.3726 -13.37769,154 5.35908,20.29966 14.73112,40.94184 24.74428,54.5 3.24955,4.4 9.64306,13.175 14.20779,19.5 20.67893,28.65321 40.06529,47.01168 72.85099,68.98831 11.35949,7.6144 35.66365,19.52333 49.82627,24.41465 17.89419,6.18009 50.95751,11.66303 78.22046,12.97142 13.77593,0.66113 52.31398,-0.44662 68.5,-1.96899 z m -83,-7.00583 C 572.24209,663.96687 544.76733,654.74591 507.07789,629.9977 492.82738,620.64032 476,606.73308 476,604.31291 c 0,-2.2619 3.67116,-1.45171 11.72394,2.58735 15.19991,7.62388 33.74992,12.64701 57.61539,15.60161 47.57534,5.88994 104.2498,-7.34474 153.13748,-35.76083 10.66247,-6.19758 31.17107,-20.00292 39.01833,-26.26515 36.539,-29.15861 68.89157,-66.12379 90.39059,-103.27786 29.09285,-50.27754 43.48512,-99.50433 43.47434,-148.69803 -0.008,-35.27664 -9.3097,-70.86401 -25.38656,-97.12364 -5.40692,-8.83156 -5.73986,-9.86831 -3.45115,-10.74657 1.84917,-0.70959 5.82165,2.69555 22.57255,19.34876 21.13475,21.0115 33.46459,38.00873 46.53605,64.15204 13.19332,26.38702 21.2958,53.02554 25.51009,83.86941 1.94872,14.26254 1.68281,52.66085 -0.46745,67.5 -4.64661,32.06675 -12.38696,57.10066 -26.60838,86.05715 -21.49767,43.77178 -54.80449,81.22199 -96.56522,108.57798 -27.66848,18.12465 -48.20588,26.96315 -76.09402,32.74789 -21.67581,4.49614 -33.09011,5.37156 -73.40598,5.62984 -21.175,0.13566 -40.3,0.0847 -42.5,-0.1133 z m 91.5,-5.38494 c 36.15664,-4.56113 61.68291,-13.35176 90.74438,-31.25018 45.49905,-28.02201 79.87053,-65.47928 103.13458,-112.39377 13.62186,-27.46996 18.78166,-43.74763 25.79339,-81.37067 2.55257,-13.69637 2.57441,-59.92658 0.0354,-75 -7.95749,-47.24208 -22.97691,-82.57122 -50.44165,-118.6504 -7.85622,-10.32036 -36.61197,-39.85126 -32.18417,-33.05174 1.71838,2.63882 5.27692,9.61382 7.90786,15.5 19.82168,44.34677 22.32725,94.75982 7.53206,151.5479 -11.9495,45.86565 -39.58703,96.71388 -73.7321,135.65424 -49.97128,56.98919 -112.01605,95.46221 -174.89613,108.45045 -28.53073,5.89318 -68.56691,6.06573 -93.39362,0.40251 -13.16452,-3.00296 -26.5825,-7.2929 -32.69151,-10.452 -5.2915,-2.73633 -2.27275,-0.0528 8.36823,7.43913 16.22272,11.42174 20.39156,13.97842 35.32328,21.66318 28.10964,14.46692 54.35218,21.25153 91,23.52667 22.62491,1.40459 68.82516,0.34049 87.5,-2.01532 z M 536,616.52826 c -33.1275,-4.88185 -59.20387,-16.4767 -84.56683,-37.60261 -39.04282,-32.52047 -58.74909,-78.98681 -58.706,-138.42565 0.0418,-57.64997 20.73513,-116.87948 59.73783,-170.98463 18.32689,-25.42335 52.4632,-59.69063 75.535,-75.82482 48.07772,-33.62092 84.63403,-49.30795 133.5,-57.28748 15.93384,-2.6019 50.23854,-2.61189 64,-0.0186 32.41172,6.10777 54.79855,15.52546 76.81245,32.31347 34.5862,26.37576 55.82506,66.2633 60.77364,114.13565 1.6789,16.24168 0.65782,51.51798 -1.90074,65.66645 -11.54058,63.81774 -44.04167,125.13208 -92.41676,174.34717 -60.57864,61.63054 -133.96295,95.47728 -206.06662,95.04327 C 552.69089,617.83018 540.675,617.2172 536,616.52826 Z m 46.5,-2.5543 c 54.12484,-6.0718 100.77378,-25.67109 148.40203,-62.35027 41.14082,-31.68311 77.541,-76.42197 100.11627,-123.05124 22.81259,-47.11945 32.37311,-91.90875 29.11642,-136.40515 -1.66014,-22.68264 -4.83357,-37.86737 -11.49555,-55.00583 -11.742,-30.20716 -31.01758,-54.36555 -57.13917,-71.61342 -28.27958,-18.67276 -59.52358,-27.555 -96.87953,-27.5415 -44.71854,0.0162 -86.90635,12.03654 -132.88902,37.86345 -6.68413,3.75425 -21.31924,13.42137 -30.23145,19.96918 -66.27068,48.68909 -113.38123,118.67592 -129.48925,192.36758 -5.06665,23.17912 -5.50781,27.43682 -5.47012,52.79324 0.037,24.89026 0.4951,29.33132 5.05439,49 7.96528,34.36201 24.68875,62.3679 50.50898,84.58471 25.33656,21.80062 53.63123,34.50228 85.396,38.3348 4.95,0.59723 10.125,1.24838 11.5,1.447 5.46633,0.78961 25.00273,0.56068 33.5,-0.39255 z m -46,-7.49607 c -38.60694,-5.49898 -73.63231,-24.41144 -96.81722,-52.27786 -17.44674,-20.9696 -29.3816,-45.71932 -35.56119,-73.74439 -4.24778,-19.26413 -5.18255,-53.64882 -2.06491,-75.95564 1.2828,-9.17846 5.11543,-26.7686 8.06174,-37 8.77332,-30.46632 28.42484,-69.25886 48.82693,-96.38546 3.05506,-4.06201 6.42766,-8.56201 7.49467,-10 7.41069,-9.9873 32.02502,-35.57127 44.1615,-45.90119 42.10871,-35.84063 86.31705,-58.26402 135.39848,-68.67694 9.90003,-2.10035 33.35002,-4.49692 44,-4.49677 31.53257,4.5e-4 64.4496,8.36393 88.5,22.48587 40.73133,23.91668 63.85516,59.01812 73.10685,110.97449 2.4854,13.95771 2.48988,49.47829 0.008,65 -3.65256,22.84501 -11.19245,49.89978 -18.81155,67.5 -4.11541,9.50662 -5.19822,11.82388 -10.48115,22.4299 C 789.54722,496.22929 733.33662,551.9112 668,583.30076 c -24.65517,11.84505 -51.90808,20.06791 -77,23.23276 -13.88626,1.75148 -42.01433,1.72277 -54.5,-0.0556 z m 49.5,-3.03413 c 42.01695,-4.83603 87.05951,-22.83433 125.68923,-50.22342 75.03509,-53.20109 127.00042,-136.9678 137.35467,-221.41201 1.59231,-12.9861 0.74293,-47.60005 -1.43081,-58.30833 -5.28498,-26.03482 -12.52135,-44.91234 -23.65443,-61.7073 C 818.40202,203.41016 805.03572,188.57576 797,181.87301 768.87988,158.4175 731.60412,145.77549 690.5,145.75375 592.30538,145.7018 487.95079,215.27582 435.14639,316 c -16.13187,30.77149 -25.68101,60.19624 -30.34329,93.5 -1.56815,11.20172 -1.53281,44.29219 0.0587,55 2.98538,20.08529 7.89955,36.57517 16.09261,54 8.0163,17.0489 17.34068,30.06164 31.47955,43.93162 21.73819,21.32479 54.02065,36.5015 86.066,40.46157 4.95,0.61171 10.125,1.2747 11.5,1.47332 6.43279,0.92922 23.77067,0.48481 36,-0.92275 z m -44.5,-7.07168 c -35.31632,-5.2667 -61.16351,-17.60743 -85.20319,-40.68022 -12.06002,-11.57497 -20.24439,-22.91901 -28.27569,-39.19186 -7.96045,-16.12927 -11.04693,-25.00709 -14.77325,-42.4931 -2.48798,-11.675 -2.66598,-14.20305 -2.67596,-38.0069 -0.0127,-30.16589 1.32715,-39.74267 9.74338,-69.64435 5.16475,-18.34963 16.86307,-44.13616 29.5671,-65.1745 38.50164,-63.76019 98.12074,-113.0869 164.67316,-136.24467 22.62869,-7.87394 40.9005,-11.0296 67.51607,-11.66045 23.54248,-0.55801 33.05609,0.26019 49.54981,4.26143 27.15528,6.58766 50.08838,19.26602 68.98225,38.13623 25.53605,25.50408 38.43936,55.73074 41.55044,97.33401 3.25712,43.55625 -6.22425,87.2049 -28.6714,131.9923 -17.08076,34.08016 -34.7914,58.51408 -62.38783,86.07133 -18.44972,18.42353 -30.73282,28.69144 -48.59489,40.62234 -33.34141,22.27025 -64.28009,35.28391 -102,42.90399 -7.78008,1.57171 -51.53518,2.88764 -59,1.77442 z m 41.5,-3.39952 c 41.95454,-3.68593 87.52789,-22.12336 128,-51.78446 10.59791,-7.76697 32.12852,-26.55197 41.06897,-35.83181 8.94816,-9.28783 25.50878,-29.10342 32.43698,-38.81242 7.89664,-11.06615 20.08168,-31.94361 27.45695,-47.04387 21.0744,-43.14807 30.30354,-87.41176 26.58421,-127.5 -2.28776,-24.6583 -6.61077,-41.26515 -15.22842,-58.5 -6.74592,-13.49149 -12.73456,-21.93997 -23.28913,-32.85517 C 778.32377,178.1974 754.2623,165.47705 721,158.86503 c -15.28052,-3.03753 -47.50997,-3.30336 -64.5,-0.532 -61.85062,10.08888 -122.73862,45.28304 -168.9132,97.63433 -24.1041,27.32847 -40.34207,53.23925 -56.109,89.53264 -7.30153,16.80717 -14.4056,44.56811 -16.9627,66.28605 -7.22471,61.36102 13.03256,117.20228 54.4849,150.19324 14.72815,11.72179 25.78207,17.83935 42.2541,23.38463 23.01578,7.74823 44.3747,10.01334 71.7459,7.60864 z M 549.26646,396.40415 c -5.3963,-1.98826 -11.60439,-8.96781 -13.27091,-14.92005 -1.99615,-7.12953 -0.83356,-20.61553 2.44597,-28.37324 5.09845,-12.06037 15.07017,-22.7387 25.55848,-27.3696 5.67726,-2.50668 17.4226,-3.41695 22.49384,-1.74329 9.44041,3.11561 15.51103,13.21579 15.50058,25.78954 -0.007,8.12625 -1.16056,12.72049 -5.28776,21.05472 -9.64853,19.48373 -31.69536,31.36309 -47.4402,25.56192 z m 23.62754,-6.0594 c 11.87747,-5.79726 22.5602,-20.71132 25.12826,-35.08135 1.07014,-5.98809 1.00637,-7.65309 -0.49025,-12.8013 -3.27072,-11.25088 -9.01898,-15.71277 -20.15997,-15.6485 -16.04277,0.0926 -32.818,15.55503 -37.78785,34.83074 -1.99746,7.74724 -2.00361,12.76846 -0.0227,18.58201 4.65987,13.67598 17.84405,17.67815 33.33254,10.1184 z m 67.09953,6.72091 c -7.94529,-2.41685 -12.97494,-6.82487 -16.61972,-14.56566 -3.40784,-7.23758 -3.35177,-19.85614 0.12934,-29.10459 7.1634,-19.0314 24.10296,-32.31569 41.27897,-32.37167 11.5892,-0.0378 19.29189,4.2484 23.88036,13.28827 8.39442,16.53804 0.11341,41.99373 -18.00797,55.35622 -9.1118,6.71893 -22.37322,9.91845 -30.66098,7.39743 z m 21.31178,-6.31759 c 7.81508,-3.61866 17.58194,-13.13922 21.57099,-21.02702 10.27728,-20.32191 5.63844,-39.60846 -10.66679,-44.34852 -10.91181,-3.17215 -22.40927,0.87276 -33.46727,11.77408 -18.46719,18.20554 -19.33281,45.59167 -1.72786,54.66529 6.17406,3.18212 16.05577,2.74935 24.29093,-1.06383 z"
       id="path1" />
  </g>
</svg>
