<?xml version="1.0" encoding="UTF-8" standalone="no"?>
<!-- Created with Inkscape (http://www.inkscape.org/) -->

<svg
   version="1.1"
   id="svg1"
   width="667.55151"
   height="641.66388"
   viewBox="0 0 667.55151 641.66388"
   xmlns="http://www.w3.org/2000/svg"
   xmlns:svg="http://www.w3.org/2000/svg">
  <defs
     id="defs1" />
  <g
     id="g1"
     transform="translate(-2244.2432,-442.07233)">
    <path
       style="fill:#000000"
       d="m 2541.0915,1083.1821 c -27.2676,-1.0982 -71.1096,-6.2039 -88.7766,-10.3386 -19.2743,-4.5109 -54.9375,-22.4648 -80.209,-40.3794 -22.2066,-15.742 -48.1884,-39.72914 -62.2458,-57.46716 -14.5546,-18.36538 -36.2444,-50.57371 -42.797,-63.55151 -7.7833,-15.41529 -14.8975,-36.16006 -18.3693,-53.56389 -9.465,-47.44772 -3.6817,-105.43224 15.905,-159.46656 35.9664,-99.22131 119.436,-187.8502 215.3194,-228.62849 63.7692,-27.12042 127.4178,-34.48624 185.2298,-21.43596 28.1183,6.34733 51.9168,16.58644 82.1943,35.36339 28.2834,17.54024 43.832,29.46333 64.1185,49.16762 47.7287,46.35883 80.7588,105.0083 93.0117,165.15461 12.7662,62.66626 8.8663,121.05571 -11.9147,178.38467 -27.0158,74.52898 -80.6705,136.85698 -153.5883,178.41598 -17.143,9.7705 -24.8585,12.7553 -43.1592,16.6965 -44.4008,9.5619 -100.9043,13.8161 -154.7188,11.6488 z m -48.9702,-85.83856 c 32.4859,-4.00662 61.0146,-12.41125 91.7502,-27.02981 59.0817,-28.10056 111.992,-73.07834 152.2597,-129.43219 20.514,-28.70901 38.6273,-65.77047 48.8737,-100 8.6771,-28.98739 12.0893,-51.67876 12.0812,-80.34174 -0.01,-22.62353 -2.1609,-39.62659 -7.4805,-59.03633 -14.6555,-53.47364 -50.9432,-94.72008 -102.4821,-116.48646 -21.1019,-8.91197 -42.6664,-13.92148 -69.532,-16.15253 -31.2803,-2.59767 -71.4128,2.83664 -106.972,14.48498 -84.621,27.7198 -163.9166,96.73692 -205.6947,179.03208 -18.0671,35.5889 -28.2543,67.74541 -33.4226,105.5 -2.3249,16.98348 -2.3271,49.44249 0,64.5 6.0613,39.29404 19.5973,71.06333 41.9273,98.40459 29.8209,36.51318 72.7275,59.96107 121.6664,66.48909 14.3875,1.91917 41.7572,1.95196 57.0298,0.0683 z m 64.1019,-240.5055 c -15.2883,-3.12392 -24.0784,-14.11989 -24.9362,-31.19409 -0.8111,-16.14379 5.8059,-30.91809 19.7306,-44.05392 12.31,-11.61267 27.2197,-16.5564 40.1133,-13.30068 19.0648,4.81404 27.8229,22.5813 22.4231,45.48908 -6.3008,26.72987 -34.3066,47.76425 -57.3308,43.05961 z m -111.2404,-1.27616 c -20.3191,-5.7288 -26.6039,-29.68878 -14.3115,-54.55994 6.201,-12.54623 15.4927,-22.1317 26.8683,-27.71755 7.5576,-3.71107 8.4175,-3.90271 17.5,-3.90009 11.3337,0.003 15.4178,1.69792 21.9347,9.10149 17.9228,20.36139 0.7679,63.84138 -29.766,75.44333 -6.6636,2.53201 -16.4786,3.25304 -22.2255,1.63276 z"
       id="path1" />
  </g>
</svg>
