<?xml version="1.0" encoding="UTF-8" standalone="no"?>
<svg
   width="464.77484"
   height="80.280518"
   overflow="hidden"
   version="1.1"
   id="svg7"
   xmlns="http://www.w3.org/2000/svg"
   xmlns:svg="http://www.w3.org/2000/svg">
  <defs
     id="defs2">
    <clipPath
       clipPathUnits="userSpaceOnUse"
       id="clipPath7">
      <rect
         x="389"
         y="316"
         width="196"
         height="88"
         id="rect8" />
    </clipPath>
  </defs>
  <g
     id="g7"
     transform="translate(-135.64941,-1024.1593)">
    <text
       font-family="REM, REM_MSFontService, sans-serif"
       font-weight="400"
       font-size="42.6667px"
       id="text3"
       x="329.38242"
       y="1078.4398">Technologies</text>
    <text
       font-family="REM, REM_MSFontService, sans-serif"
       font-weight="400"
       font-size="42.6667px"
       id="text4"
       x="596.88245"
       y="1078.4398" />
    <path
       d="m 449.3495,335.62292 c 3.117,-4.12144 7.2401,-7.64507 11.8148,-9.66404 3.7384,-1.64981 7.7782,-2.17755 11.8171,-2.17755 7.13072,0 14.41164,2.37832 19.61672,7.34827 3.08031,2.94115 6.02908,6.57665 7.84158,10.84705 1.4636,3.44855 2.5566,7.39669 2.9975,11.39975 0.2763,2.51014 0.6293,5.08793 0.6293,7.68216 0,7.44832 -1.5688,14.50447 -4.6806,20.32163 -2.5006,4.67461 -4.79837,8.22337 -8.88447,11.07842 -2.2458,1.56921 -4.33121,3.02314 -7.14531,3.99655 -3.24121,1.12135 -7.13432,1.99822 -10.25512,1.99822 -6.1648,0 -12.4491,-2.26355 -17.4282,-5.91228 -3.8235,-2.80202 -6.8496,-6.67695 -9.2359,-11.20485 -3.0225,-5.73491 -4.3016,-13.11517 -4.3016,-20.39506 0,-9.60772 2.224,-18.71986 7.2143,-25.31837 z m 5.0315,25.5865 c 0,13.71802 6.867,25.08634 19.0104,25.08634 12.14322,0 18.41254,-11.48573 18.41254,-25.20372 0,-13.71803 -6.26932,-24.49922 -18.41254,-24.49922 -12.1434,0 -19.0104,10.89857 -19.0104,24.6166 z M 424.6294,329.9457 v 68.1778 c 0,0.18213 -0.1473,0.32988 -0.3292,0.32988 h -10.8709 c -0.1665,0 -0.3014,-0.13532 -0.3014,-0.30221 v -57.65011 l -18.6739,8.09003 c -0.0125,0.005 -0.027,0.004 -0.0384,-0.003 -0.0115,-0.008 -0.0183,-0.0202 -0.0183,-0.034 v -11.59592 c 0,-0.19787 0.118,-0.37649 0.2998,-0.45367 l 29.5525,-12.55198 c 0.0842,-0.0358 0.1806,-0.0269 0.2569,0.0238 0.0762,0.0506 0.122,0.13612 0.122,0.22784 v 5.74197 z m 89.1601,-5.87198 c -0.0473,-0.0696 -0.0522,-0.15968 -0.0128,-0.23406 0.0394,-0.0743 0.1167,-0.12068 0.2007,-0.12018 l 14.1181,0.0716 c 0.6276,0.003 1.2129,0.31755 1.5629,0.83979 l 15.8768,23.6875 16.059,-23.70124 c 0.2851,-0.42069 0.7603,-0.67169 1.2676,-0.66948 l 14.243,0.0609 c 0.0666,3e-4 0.1277,0.0375 0.1586,0.0966 0.031,0.0591 0.0268,0.13071 -0.0109,0.18584 l -24.084,35.24353 26.0047,38.59516 c 0.0429,0.0635 0.0472,0.14564 0.0113,0.2134 -0.0359,0.0678 -0.1062,0.11026 -0.1827,0.11026 h -13.7125 c -0.6311,0 -1.2208,-0.31514 -1.5726,-0.84039 l -18.1815,-27.14117 -17.7289,27.16784 c -0.3312,0.5077 -0.8957,0.81372 -1.5009,0.81372 H 512.66 c -0.0763,0 -0.1463,-0.0421 -0.1825,-0.10946 -0.0361,-0.0673 -0.0325,-0.14905 0.01,-0.2129 l 25.4148,-38.59646 z M 345.972,430.68479 c 0,0.0419 -0.033,0.0759 -0.075,0.0759 h -2.971 c -0.041,0 -0.073,-0.0322 -0.073,-0.072 v -16.84483 c 0,-0.0711 -0.057,-0.1287 -0.129,-0.1287 h -6.293 c -0.073,0 -0.133,-0.0598 -0.133,-0.13372 v -2.86217 c 0,-0.0762 0.062,-0.13792 0.138,-0.13792 h 15.992 c 0.055,0 0.1,0.0451 0.1,0.10083 v 2.93003 c 0,0.0568 -0.046,0.10295 -0.102,0.10295 h -6.329 c -0.069,0 -0.125,0.0556 -0.125,0.12439 z m 9.808,-1.40141 c -3.954,-2.06198 -4.713,-7.6096 -2.358,-11.05023 1.625,-2.37291 4.035,-3.15105 6.794,-2.71833 2.593,0.40656 4.205,2.05225 5.002,4.50235 0.393,1.21166 0.262,3.86443 0.262,3.86443 0,0 -6.608,0 -9.879,0 -0.099,1.37997 0.599,2.48277 1.865,3.07387 1.447,0.6756 2.888,0.50399 4.307,-0.0754 0.387,-0.15807 0.821,-0.38852 1.219,-0.5935 0.274,-0.14184 0.612,-0.0605 0.792,0.19125 l 0.61,0.84911 c 0.235,0.32657 0.168,0.78085 -0.15,1.02613 -0.247,0.18964 -0.64,0.43091 -0.777,0.53055 -0.178,0.1285 -0.722,0.39975 -0.722,0.39975 0,0 -0.316,0.18453 -0.741,0.30782 -1.026,0.29771 -2.307,0.51783 -3.523,0.4203 -0.983,-0.0787 -1.918,-0.40927 -2.701,-0.72812 z m 6.55,-7.71795 c -0.1,-2.22597 -1.591,-3.59911 -3.622,-3.45928 -1.908,0.13131 -3.288,1.58815 -3.157,3.45918 1.717,0 3.445,0 5.412,10e-5 0.454,0 0.908,0 1.367,0 z m 161.1469,7.94318 c -3.9544,-2.06198 -4.7139,-7.60949 -2.3579,-11.05023 1.6249,-2.37291 4.0346,-3.15105 6.7943,-2.71823 2.5923,0.40656 4.2045,2.05216 5.0009,4.50225 0.3939,1.21176 0.2623,3.86444 0.2623,3.86444 0,0 -6.6085,0 -9.8788,0 -0.099,1.37996 0.5992,2.48277 1.865,3.07396 1.4464,0.6756 2.8875,0.504 4.3073,-0.0755 0.3874,-0.15808 0.8209,-0.38852 1.2185,-0.59351 0.2751,-0.14183 0.6123,-0.0605 0.7929,0.19125 l 0.6095,0.84911 c 0.2345,0.32657 0.168,0.78085 -0.1503,1.02623 -0.246,0.18955 -0.6399,0.43082 -0.7774,0.53055 -0.1771,0.12841 -0.7212,0.39965 -0.7212,0.39965 0,0 -0.316,0.18453 -0.7411,0.30783 -1.0263,0.2977 -2.3065,0.51782 -3.5231,0.42039 -0.9835,-0.0788 -1.9182,-0.40937 -2.7009,-0.72822 z m 6.5498,-7.71795 c -0.0997,-2.22596 -1.5909,-3.59911 -3.622,-3.45928 -1.908,0.13141 -3.2878,1.58826 -3.1569,3.45918 1.7171,0 3.4449,0 5.4122,10e-5 0.454,0 0.9081,0 1.3667,0 z m 27.1694,7.61019 c -3.9545,-2.06187 -4.714,-7.60949 -2.3579,-11.05022 1.6249,-2.37291 4.0346,-3.15105 6.7942,-2.71823 2.5923,0.40656 4.2045,2.05225 5.0009,4.50224 0.3939,1.21177 0.2624,3.86444 0.2624,3.86444 0,0 -6.6085,0 -9.8788,0 -0.0991,1.37996 0.5991,2.48277 1.8649,3.07397 1.4464,0.6756 2.8875,0.50399 4.3073,-0.0754 0.3874,-0.15807 0.821,-0.38852 1.2185,-0.5936 0.2751,-0.14174 0.6124,-0.0605 0.793,0.19135 l 0.6095,0.84901 c 0.2345,0.32667 0.1679,0.78084 -0.1503,1.02622 -0.2461,0.18965 -0.6399,0.43082 -0.7775,0.53056 -0.177,0.1285 -0.7212,0.39964 -0.7212,0.39964 0,0 -0.316,0.18454 -0.7411,0.30783 -1.0262,0.2978 -2.3065,0.51783 -3.5231,0.42039 -0.9835,-0.0788 -1.9182,-0.40926 -2.7008,-0.72822 z m 6.5498,-7.71795 c -0.0998,-2.22596 -1.5909,-3.59911 -3.6221,-3.45917 -1.9079,0.13131 -3.2878,1.58815 -3.1568,3.45907 1.7171,0 3.4449,0 5.4121,1e-4 0.4541,0 0.9081,0 1.3668,0 z m 46.5351,7.74732 c -3.954,-2.06187 -4.714,-7.60949 -2.358,-11.05022 1.625,-2.37292 4.035,-3.15106 6.794,-2.71823 2.593,0.40656 4.205,2.05225 5.002,4.50234 0.393,1.21167 0.261,3.86434 0.261,3.86434 0,0 -6.608,0 -9.878,0 -0.1,1.37986 0.599,2.48277 1.864,3.07397 1.447,0.6756 2.889,0.50399 4.308,-0.0754 0.387,-0.15807 0.821,-0.38852 1.219,-0.5935 0.274,-0.14184 0.611,-0.0605 0.792,0.19125 l 0.61,0.84901 c 0.234,0.32667 0.168,0.78084 -0.151,1.02622 -0.246,0.18965 -0.64,0.43082 -0.776,0.53066 -0.178,0.1284 -0.722,0.39954 -0.722,0.39954 0,0 -0.316,0.18454 -0.741,0.30783 -1.026,0.2978 -2.307,0.51782 -3.523,0.42039 -0.983,-0.0788 -1.918,-0.40926 -2.701,-0.72822 z m 6.55,-7.71795 c -0.1,-2.22596 -1.591,-3.59911 -3.622,-3.45917 -1.908,0.13131 -3.288,1.58805 -3.157,3.45907 1.717,0 3.445,0 5.412,10e-5 0.454,0 0.908,0 1.367,0 z m -241.206,-6.86332 c 2.02,0 3.861,0.77403 5.244,2.04212 l -2.09,2.54442 c -0.766,-0.68532 -2.05,-1.10221 -3.154,-1.10221 -2.38,0 -4.31,1.93558 -4.31,4.32052 0,2.38494 1.93,4.32042 4.31,4.32042 1.125,0 2.598,-0.45187 3.366,-1.16095 l -0.002,0.0185 1.996,2.18016 10e-4,0.007 c -1.415,1.47468 -3.161,2.4115 -5.361,2.4115 -4.291,0 -7.772,-3.49026 -7.772,-7.79072 0,-4.30037 3.481,-7.79062 7.772,-7.79062 z m 3.154,4.58654 c 0.005,0.004 0.008,0.008 0.013,0.0118 h -0.019 l -0.002,-0.002 z m 5.253,-8.4168 c 0,-0.19526 0.078,-0.3826 0.215,-0.52073 0.138,-0.13803 0.325,-0.21561 0.52,-0.21561 h 1.679 c 0.165,0 0.323,0.0657 0.4405,0.18263 0.1162,0.11708 0.1817,0.27565 0.1817,0.44114 0,2.47676 0,7.50535 0,7.50535 0.1143,-0.11968 0.3068,-0.29931 0.6058,-0.51893 0.297,-0.21761 1.0328,-0.66687 1.0328,-0.66687 0,0 0.3214,-0.12099 0.6021,-0.22273 0.2807,-0.10174 0.6009,-0.0976 0.6009,-0.0976 l 0.2574,-0.0384 0.7487,-0.0944 c 0,0 0.327,-0.0281 0.4434,-0.0281 0.2536,0 0.4714,-0.005 0.7078,0.0281 1.0709,0.14866 1.9971,0.63922 2.7816,1.27392 0.5316,0.43011 0.9331,0.93451 1.249,1.54294 0.2374,0.45668 0.4617,0.9721 0.4617,1.55839 0,0.28688 0,0.69354 0,0.9301 h 0.002 v 7.90409 c 0,0.35734 -0.2889,0.64683 -0.6452,0.64683 h -1.583 c -0.3398,0 -0.6154,-0.27606 -0.6154,-0.61686 0,-2.55705 0,-7.74882 0,-7.74882 -0.0156,0.002 -0.0198,0.006 -0.0198,0.006 l -0.233,-1.03435 c 0,0 -0.4459,-0.8061 -0.7752,-1.10361 -0.647,-0.58388 -1.6533,-0.68101 -2.2946,-0.68101 -2.173,0 -3.3259,2.81897 -3.3259,2.81897 0,0 0,10e-5 -10e-4,2e-4 0,0 0,5.23067 0,7.80696 0,0.30111 -0.2433,0.54509 -0.5432,0.54509 h -1.977 c -0.285,0 -0.516,-0.23185 -0.516,-0.51773 z m 17.3363,6.5571 c 0,-0.24337 0.1969,-0.44074 0.4397,-0.44074 h 2.1915 c 0.2491,0 0.4512,0.20248 0.4512,0.45227 0,0.24598 0,0.74516 0,0.74516 0.1157,-0.12138 0.3108,-0.30382 0.6151,-0.52664 0.3015,-0.22092 1.0476,-0.677 1.0476,-0.677 0,0 0.3268,-0.12289 0.6118,-0.22604 0.2849,-0.10334 0.61,-0.0991 0.61,-0.0991 l 0.2612,-0.039 0.7601,-0.0959 c 0,0 0.3319,-0.0285 0.45,-0.0285 0.2576,0 0.4786,-0.005 0.7186,0.0285 1.0872,0.15096 2.0273,0.64893 2.8238,1.29326 0.5396,0.43663 0.9471,0.94874 1.2679,1.5662 0.2409,0.4638 0.4686,0.98683 0.4686,1.58214 0,0.29119 0,0.70407 0,0.94413 h 0.002 v 8.23537 c 0,0.24599 -0.1988,0.44516 -0.444,0.44516 h -1.9721 c -0.2599,0 -0.4705,-0.2111 -0.4705,-0.47162 0,-2.64676 0,-8.02076 0,-8.02076 -0.0159,0.002 -0.0202,0.006 -0.0202,0.006 l -0.2365,-1.04998 c 0,0 -0.4527,-0.81844 -0.787,-1.12035 -0.6567,-0.5928 -1.6783,-0.69143 -2.3294,-0.69143 -2.2063,0 -3.3761,2.86176 -3.3761,2.86176 0,0 -3e-4,0 -9e-4,2e-4 0,0 0,5.39165 0,8.04743 0,0.23405 -0.1894,0.4238 -0.4229,0.4238 h -2.2241 c -0.2405,0 -0.4354,-0.19546 -0.4354,-0.43643 z m 23.7712,-2.18947 c 4.1615,0 7.5389,3.3855 7.5389,7.55686 0,4.17137 -3.3774,7.55687 -7.5389,7.55687 -4.1615,0 -7.539,-3.3855 -7.539,-7.55687 0,-4.17136 3.3775,-7.55686 7.539,-7.55686 z m -4.526,7.55686 c 0,2.50423 2.0277,4.53673 4.526,4.53673 2.4984,0 4.526,-2.0325 4.526,-4.53673 0,-2.50422 -2.0276,-4.53662 -4.526,-4.53662 -2.4983,0 -4.526,2.0324 -4.526,4.53662 z m 29.5491,-7.47848 c 4.1615,0 7.539,3.38551 7.539,7.55687 0,4.17136 -3.3775,7.55687 -7.539,7.55687 -4.1615,0 -7.539,-3.38551 -7.539,-7.55687 0,-4.17136 3.3775,-7.55687 7.539,-7.55687 z m -4.526,7.55687 c 0,2.50422 2.0277,4.53663 4.526,4.53663 2.4984,0 4.526,-2.03241 4.526,-4.53663 0,-2.50422 -2.0276,-4.53673 -4.526,-4.53673 -2.4983,0 -4.526,2.03251 -4.526,4.53673 z m -9.483,-11.85874 c 0,-0.44094 0.3566,-0.79829 0.7964,-0.79829 h 1.2946 c 0.4398,0 0.7963,0.35735 0.7963,0.79829 v 18.71595 c 0,0.49868 -0.4031,0.90274 -0.9006,0.90274 h -1.1382 c -0.4686,0 -0.8485,-0.3808 -0.8485,-0.85041 z m 25.0536,10.91711 c -0.5203,-1.42928 -0.6065,-2.80904 -0.2961,-4.21055 0.9709,-4.38367 5.8164,-5.68164 8.6078,-3.35293 0.1022,0.0852 0.2303,0.13913 0.4279,0.25581 0.0532,-0.26994 0.1234,-0.76 0.179,-1.13509 0.0376,-0.2538 0.2543,-0.44214 0.5103,-0.44355 0.2579,-10e-4 0.5146,0 0.7817,0 0.2549,0 0.6201,0 0.9255,0 0.1236,1e-4 0.2422,0.0493 0.3295,0.13683 0.0874,0.0877 0.1364,0.20638 0.1364,0.33028 0,0.35143 -10e-5,0.8457 1e-4,1.06471 10e-4,1.28264 0.012,2.50934 0,3.79197 -0.008,0.86334 0.0122,1.74382 0,2.62581 -0.0149,1.07183 -0.1323,2.14587 -0.1327,3.19485 -4e-4,1.01139 -0.1074,1.99803 -0.5104,2.94657 -0.7166,1.68679 -1.9942,2.73948 -3.7391,3.0893 -1.5825,0.31705 -3.2149,0.30853 -4.7952,-0.10214 -0.5762,-0.14975 -1.2042,-0.43052 -1.7762,-0.69233 -0.2346,-0.10736 -0.344,-0.3802 -0.2489,-0.62037 l 0.566,-1.43028 c 0.0401,-0.10164 0.1201,-0.18243 0.2212,-0.22353 0.1011,-0.0413 0.2146,-0.0393 0.3141,0.005 0.2737,0.12279 0.5695,0.25561 0.8297,0.37118 1.1735,0.52133 2.397,0.72702 3.6704,0.53526 2.034,-0.30642 3.0916,-1.84817 2.7193,-3.97459 -0.0981,0.0253 -0.2139,0.0233 -0.2867,0.0785 -2.8073,2.12443 -6.3073,1.44211 -8.1119,-1.58835 -0.1097,-0.18434 -0.1955,-0.38291 -0.3217,-0.65275 z m 8.8385,-1.20765 c 0.0842,-0.4201 0.2244,-0.83758 0.2433,-1.26068 0.1136,-2.5373 -2.1089,-4.34909 -4.4514,-3.65033 -1.5742,0.46961 -2.5182,1.84335 -2.4812,3.61043 0.0357,1.70203 1.0636,3.06936 2.5635,3.43723 1.4935,0.36617 3.354,-0.17572 4.1258,-2.13665 z m 46.9266,9.54026 c -0.4969,0.0179 -1.1582,0.008 -1.8376,0.0174 -0.4347,0.006 -0.8586,-0.003 -1.2604,0 -0.1983,0.002 -0.4043,-0.007 -0.5778,-0.007 -0.09,-1e-4 -0.176,-0.003 -0.2571,-0.01 -0.005,-0.005 -0.0137,-0.0104 -0.007,-6e-4 0,0 0,-1.1e-4 0,-1.1e-4 0,0 0,0 0,1.1e-4 0,0 0,0 0,0 0,0 0,0 0,0 0,0 0,0 0,0 -0.042,-0.0127 -0.0539,-0.0331 0,-1.1e-4 -0.0249,-0.0313 -3.7114,-5.05505 -5.37,-7.33694 -0.5722,-0.78716 -1.201,-1.1405 -2.3207,-0.76561 -0.1044,1.30178 -0.0326,2.68294 -0.0455,4.05839 -0.0129,1.38778 0.0645,2.59664 0.0645,4.06171 -1.1245,0 -2.3054,0 -3.3033,0 -0.0492,-0.17351 0,-3.41518 0,-3.41518 0,0 0,-2.18717 0,-3.18543 0,-2.7503 0,-4.4004 0,-4.4004 0,0 0.0127,-2.16362 0,-4.40051 -0.0101,-1.79123 -0.007,-2.67001 -0.002,-3.98512 8e-4,-0.22964 0.1868,-0.41518 0.4158,-0.41508 0.1181,0 0.2457,0 0.3578,-10e-5 2.5802,-0.003 5.1853,-0.0693 7.7636,0 1.0434,0.028 2.0636,-0.0772 3.0656,0.21491 2.4361,0.71017 3.6905,2.38193 3.86,4.92684 0.1607,2.41281 -0.9886,4.50836 -3.1183,5.50001 -0.7576,0.35273 -1.6029,0.51842 -2.4116,0.75749 -0.27,0.0798 -0.5509,0.12219 -1.0303,0.22563 1.9629,2.72926 4.0261,5.54541 6.0152,8.1595 z m -3.9402,0 c 0,0 0,0 10e-5,0 -0.002,10e-5 -0.0317,-0.003 -10e-5,0 z m 0.002,10e-4 c -6e-4,-3e-4 -10e-4,-7e-4 -0.002,-10e-4 0,0 0,0 0,0 0,0 0,0 0,0 0.002,5e-4 0.003,9e-4 0.002,10e-4 z m -0.0565,-16.41632 c -0.8575,-0.18363 -1.7083,-0.47051 -2.574,-0.52724 -1.3857,-0.0909 -2.7814,-0.0353 -4.1728,-0.0268 -0.2801,0.002 -0.5598,0.0702 -0.8566,0.10996 0,1.86581 0,3.65775 0,5.50442 0.4126,0.0296 0.7409,0.0768 1.0685,0.0726 1.6855,-0.0216 3.3736,-0.008 5.0554,-0.10325 1.1148,-0.0633 2.0721,-0.55982 2.4431,-1.70342 0.391,-1.20535 0.271,-2.34525 -0.9636,-3.32627 z m 0.0546,16.41532 c 0,0 0,0 0,0 0,10e-5 0,10e-5 0,0 z m 66.2505,-11.84481 c 0,0.0965 -0.0383,0.18915 -0.1064,0.25741 -0.0682,0.0683 -0.1607,0.10645 -0.257,0.10635 -0.1053,-1e-4 -0.2632,-1e-4 -0.3193,10e-4 -0.3737,0.007 -0.4091,-0.0116 -0.8142,0 -0.8195,0.0234 -1.7224,-0.008 -2.5705,-0.0252 -0.1196,-0.003 -0.2351,0.0433 -0.3206,0.1273 -0.0855,0.0838 -0.1336,0.19867 -0.1336,0.31866 v 10.28822 c 0,0.17482 -0.1414,0.31645 -0.3157,0.31645 h -2.3648 c -0.1963,0 -0.3554,-0.15948 -0.3554,-0.35624 v -10.18358 c 0,-0.26723 -0.2162,-0.48394 -0.4828,-0.48394 h -1.7873 c -0.2413,0 -0.4369,-0.19607 -0.4369,-0.43784 v -2.01336 c 0,-0.21681 0.1754,-0.39253 0.3916,-0.39253 h 1.8385 c 0.1161,0 0.2275,-0.0464 0.3094,-0.1289 0.0818,-0.0825 0.1277,-0.19426 0.1272,-0.31054 -0.002,-0.38932 -0.007,-0.81743 0.009,-1.17969 0.0302,-0.719 0.0177,-1.44962 0.1466,-2.15269 0.4782,-2.60866 2.9463,-4.19562 5.5148,-3.5542 0.8401,0.2098 1.7556,0.51271 2.6106,0.79588 0.0714,0.0237 0.1297,0.0759 0.1612,0.14434 0.0314,0.0684 0.0331,0.14685 0.005,0.21652 l -0.8409,2.06277 c -0.0544,0.13322 -0.1994,0.20509 -0.3382,0.1673 -0.599,-0.16299 -1.2454,-0.36326 -1.8266,-0.44987 -1.5063,-0.22463 -2.2689,0.38872 -2.3661,1.89128 -0.0421,0.65224 -0.0305,1.37114 -0.0173,2.04633 0.005,0.23837 0.1993,0.42862 0.437,0.42731 l 3.6847,-0.0201 c 0.1108,-7e-4 0.2173,0.043 0.2957,0.12138 0.0786,0.0782 0.1228,0.18464 0.1228,0.2957 z m -43.6206,4.43418 c 0.1619,-2.88201 1.2329,-5.14246 3.7735,-6.44814 2.2702,-1.16666 4.5479,-1.19663 6.7069,0.36045 0.1017,0.0733 0.2158,0.12971 0.326,0.19055 0.0365,0.0202 0.0791,0.0294 0.1217,0.0447 0.2068,-0.0648 0.2273,-0.1663 0.2493,-0.28768 0.0324,-0.17873 -0.002,-0.40035 0,-0.61035 0.013,-1.81699 0.003,-4.20314 5e-4,-6.27333 -1e-4,-0.0442 0.0174,-0.0865 0.0485,-0.11778 0.0311,-0.0312 0.0733,-0.0487 0.1174,-0.0487 h 2.9574 c 0.0455,0 0.0889,0.0182 0.1209,0.0506 0.0318,0.0324 0.0494,0.0763 0.0487,0.12188 l -0.2895,20.25981 c -10e-4,0.0833 -0.0689,0.15035 -0.1521,0.15035 h -2.6924 c -0.0883,0 -0.16,-0.0714 -0.1607,-0.15968 -0.002,-0.28347 -0.005,-0.61876 10e-4,-0.85873 0.003,-0.14043 0.0211,-0.28657 0,-0.36155 -0.0535,0 -0.0644,-0.01 -0.1408,-0.0165 -0.0764,-0.007 -0.1283,-0.0341 -0.1647,-0.01 -4.7267,3.1314 -10.1697,0.56463 -10.8271,-5.11119 z m 3.4799,1.89007 c 0.6012,1.63547 1.8231,2.50593 3.5493,2.61378 1.7079,0.10665 3.0862,-0.53627 3.9084,-2.06849 1.2376,-2.30575 0.6013,-6.41948 -3.5474,-6.82052 -3.8733,0.0941 -4.8249,3.78705 -3.9103,6.27523 z m 83.695,-1.96845 c 0.163,-2.88202 1.234,-5.14246 3.774,-6.44805 2.271,-1.16666 4.548,-1.19663 6.707,0.36035 0.101,0.0733 0.216,0.12971 0.326,0.19055 0.036,0.0202 0.079,0.0295 0.122,0.0447 0.206,-0.0648 0.227,-0.16629 0.249,-0.28758 0.033,-0.17882 -0.002,-0.40045 0,-0.61044 0.013,-1.8169 0.003,-4.20314 0,-6.27334 0,-0.0441 0.018,-0.0865 0.049,-0.11767 0.031,-0.0313 0.073,-0.0488 0.117,-0.0488 h 2.958 c 0.045,0 0.089,0.0182 0.12,0.0506 0.032,0.0325 0.05,0.0764 0.049,0.12189 l -0.289,20.2598 c -10e-4,0.0834 -0.07,0.15036 -0.153,0.15036 h -2.691 c -0.089,0 -0.161,-0.0713 -0.162,-0.15968 -0.002,-0.28337 -0.005,-0.61886 0.002,-0.85873 0.003,-0.14043 0.021,-0.28658 0,-0.36156 -0.053,0 -0.064,-0.01 -0.141,-0.0166 -0.077,-0.007 -0.128,-0.0339 -0.165,-0.01 -4.727,3.13141 -10.169,0.56474 -10.827,-5.11118 z m 3.481,1.89017 c 0.601,1.63536 1.822,2.50582 3.549,2.61368 1.708,0.10665 3.086,-0.53627 3.908,-2.06849 1.238,-2.30576 0.602,-6.41948 -3.547,-6.82053 -3.874,0.0941 -4.825,3.78715 -3.91,6.27534 z m -36.05,-7.29746 c 0,-0.24297 0.197,-0.43994 0.439,-0.43994 h 2.193 c 0.249,0 0.45,0.20218 0.45,0.45137 0,0.24628 0,0.74606 0,0.74606 0.116,-0.12138 0.311,-0.30381 0.616,-0.52664 0.301,-0.22092 1.047,-0.6771 1.047,-0.6771 0,0 0.326,-0.12279 0.612,-0.22604 0.285,-0.10324 0.609,-0.099 0.609,-0.099 l 0.262,-0.039 0.76,-0.0959 c 0,0 0.332,-0.0285 0.45,-0.0285 0.258,0 0.479,-0.005 0.719,0.0285 1.087,0.15096 2.027,0.64883 2.824,1.29326 0.539,0.43653 0.947,0.94874 1.267,1.5662 0.241,0.4638 0.469,0.98693 0.469,1.58214 0,0.29119 0,0.70407 0,0.94413 h 0.002 v 8.23628 c 0,0.24528 -0.198,0.44425 -0.444,0.44425 h -1.973 c -0.259,0 -0.469,-0.2107 -0.469,-0.47071 0,-2.64716 0,-8.02167 0,-8.02167 -0.017,0.002 -0.021,0.006 -0.021,0.006 l -0.236,-1.05018 c 0,0 -0.453,-0.81833 -0.788,-1.12025 -0.656,-0.5927 -1.677,-0.69133 -2.329,-0.69133 -2.206,0 -3.376,2.86166 -3.376,2.86166 0,0 0,10e-5 -10e-4,2e-4 0,0 0,5.39235 0,8.04823 0,0.23365 -0.189,0.423 -0.422,0.423 h -2.226 c -0.239,0 -0.434,-0.19496 -0.434,-0.43553 z m -114.1475,-3.68772 c -0.0528,-0.0934 -0.0521,-0.20789 0.002,-0.30081 0.0539,-0.0927 0.1529,-0.14985 0.26,-0.14985 h 1.3934 c 0.61527,0 1.18455,0.32657 1.49627,0.85843 l 3.69572,6.3039 3.59033,-6.29037 c 0.30717,-0.53817 0.87835,-0.87016 1.49691,-0.87016 h 1.49098 c 0.10628,0 0.20455,0.0566 0.25796,0.14875 0.0534,0.0921 0.0539,0.20579 10e-4,0.29831 l -9.39079,16.53018 c -0.25348,0.44606 -0.72631,0.72171 -1.23853,0.72171 h -1.77594 c -0.0925,0 -0.17797,-0.0494 -0.22438,-0.12961 -0.0464,-0.0802 -0.0467,-0.17912 -7.6e-4,-0.25951 l 3.79607,-6.65083 c 0.28909,-0.50649 0.2902,-1.12826 0.003,-1.63576 z m 108.0197,-4.10781 c 1.1987,0 2.1709,0.97491 2.1709,2.17615 0,1.20124 -0.9722,2.17614 -2.1709,2.17614 -1.1984,0 -2.1709,-0.9749 -2.1709,-2.17614 0,-1.20124 0.9725,-2.17615 2.1709,-2.17615 z m -1.4929,7.54504 c 0,-0.21561 0.1744,-0.39032 0.3894,-0.39032 h 2.1576 c 0.2423,0 0.4387,0.19706 0.4387,0.44024 v 12.93448 c 0,0.23796 -0.1925,0.43092 -0.4299,0.43092 h -2.155 c -0.2214,0 -0.4008,-0.17993 -0.4008,-0.40175 z"
       id="path4"
       style="stroke-width:1.00118"
       clip-path="url(#clipPath7)"
       transform="translate(-253.35058,700.43984)" />
  </g>
</svg>
