<?xml version="1.0" encoding="UTF-8" standalone="no"?>
<svg
   width="464.77484"
   height="80.280518"
   overflow="hidden"
   version="1.1"
   id="svg7"
   sodipodi:docname="10X Technologies_logo_black-bg.svg"
   inkscape:export-filename="technologiesLogo"
   inkscape:export-xdpi="30"
   inkscape:export-ydpi="30"
   xmlns:inkscape="http://www.inkscape.org/namespaces/inkscape"
   xmlns:sodipodi="http://sodipodi.sourceforge.net/DTD/sodipodi-0.dtd"
   xmlns="http://www.w3.org/2000/svg"
   xmlns:svg="http://www.w3.org/2000/svg">
  <sodipodi:namedview
     id="namedview7"
     pagecolor="#ffffff"
     bordercolor="#000000"
     borderopacity="0.25"
     inkscape:showpageshadow="2"
     inkscape:pageopacity="0.0"
     inkscape:pagecheckerboard="0"
     inkscape:deskcolor="#d1d1d1">
    <inkscape:page
       x="0"
       y="0"
       width="464.77484"
       height="80.280518"
       id="page2"
       margin="0"
       bleed="0" />
  </sodipodi:namedview>
  <defs
     id="defs2">
    <clipPath
       clipPathUnits="userSpaceOnUse"
       id="clipPath8">
      <rect
         x="389"
         y="316"
         width="196"
         height="88"
         id="rect9" />
    </clipPath>
  </defs>
  <g
     id="g9"
     transform="translate(-103.9806,-869.54095)">
    <text
       fill="#ffffff"
       font-family="REM, REM_MSFontService, sans-serif"
       font-weight="400"
       font-size="42.6667px"
       id="text3"
       x="297.71359"
       y="923.82147">Technologies</text>
    <text
       fill="#ffffff"
       font-family="REM, REM_MSFontService, sans-serif"
       font-weight="400"
       font-size="42.6667px"
       id="text4"
       x="565.21362"
       y="923.82147" />
    <g
       id="g4"
       transform="translate(-285.0194,545.82147)"
       clip-path="url(#clipPath8)"
       inkscape:label="g4">
      <path
         d="m -37.4535,-41.6773 c 3.117,-4.1117 7.2401,-7.627 11.8148,-9.6412 3.7384,-1.6459 7.7782,-2.1724 11.8171,-2.1724 7.13072,0 14.411641,2.3727 19.61672,7.3309 3.08031,2.9342 6.02908,6.5611 7.84158,10.8214 1.4636,3.4404 2.5566,7.3792 2.9975,11.3728 0.2763,2.5042 0.6293,5.0759 0.6293,7.664 0,7.4307 -1.5688,14.47017 -4.6806,20.27358 -2.5006,4.66355 -4.79837,8.20392 -8.88447,11.05222 -2.2458,1.5655 -4.331209,3.016 -7.14531,3.9871 -3.24121,1.1187 -7.13432,1.9935 -10.25512,1.9935 -6.1648,0 -12.4491,-2.2582 -17.4282,-5.8983 -3.8235,-2.7954 -6.8496,-6.66116 -9.2359,-11.17836 -3.0225,-5.72135 -4.3016,-13.08416 -4.3016,-20.34684 0,-9.585 2.224,-18.6756 7.2143,-25.2585 z m 5.0315,25.526 c 0,13.68558 6.867,25.02702 19.0104,25.02702 12.14322,0 18.41254,-11.45857 18.41254,-25.14412 0,-13.6856 -6.26932,-24.4413 -18.41254,-24.4413 -12.1434,0 -19.0104,10.8728 -19.0104,24.5584 z m -29.7516,-31.1898 v 68.0166 c 0,0.1817 -0.1473,0.3291 -0.3292,0.3291 h -10.8709 c -0.1665,0 -0.3014,-0.135 -0.3014,-0.3015 v -57.5138 l -18.6739,8.0709 c -0.0125,0.0053 -0.027,0.0041 -0.0384,-0.0034 -0.0115,-0.0075 -0.0183,-0.0202 -0.0183,-0.0339 v -11.5685 c 0,-0.1974 0.118,-0.3756 0.2998,-0.4526 l 29.5525,-12.5223 c 0.0842,-0.0357 0.1806,-0.0268 0.2569,0.0237 0.0762,0.0505 0.122,0.1358 0.122,0.2273 v 5.7284 z m 89.1601,-5.8581 c -0.0473,-0.0694 -0.0522,-0.1593 -0.0128,-0.2335 0.0394,-0.0741 0.1167,-0.1204 0.2007,-0.1199 l 14.1181,0.0714 c 0.6276,0.0031 1.2129,0.3168 1.5629,0.8378 l 15.8768,23.6315 16.059,-23.6452 c 0.2851,-0.4197 0.7603,-0.6701 1.2676,-0.6679 l 14.243,0.0608 c 0.0666,3e-4 0.1277,0.0374 0.1586,0.0964 0.031,0.059 0.0268,0.1304 -0.0109,0.1854 l -24.084,35.1602 26.0047,38.5039 c 0.0429,0.0634 0.0472,0.1453 0.0113,0.2129 -0.0359,0.0676 -0.1062,0.11 -0.1827,0.11 H 78.4863 c -0.6311,0 -1.2208,-0.3144 -1.5726,-0.8384 L 58.7322,-6.9108 41.0033,20.1928 c -0.3312,0.5065 -0.8957,0.8118 -1.5009,0.8118 H 25.857 c -0.0763,0 -0.1463,-0.042 -0.1825,-0.1092 C 25.6384,20.8283 25.642,20.7467 25.684,20.683 L 51.0988,-17.8222 Z M -140.831,53.1598 c 0,0.0418 -0.033,0.0757 -0.075,0.0757 h -2.971 c -0.041,0 -0.073,-0.0321 -0.073,-0.0718 v -16.805 c 0,-0.0709 -0.057,-0.1284 -0.129,-0.1284 h -6.293 c -0.073,0 -0.133,-0.0597 -0.133,-0.1334 v -2.8554 c 0,-0.076 0.062,-0.1376 0.138,-0.1376 h 15.992 c 0.055,0 0.1,0.045 0.1,0.1006 v 2.9231 c 0,0.0567 -0.046,0.1027 -0.102,0.1027 h -6.329 c -0.069,0 -0.125,0.0555 -0.125,0.1241 z m 9.808,-1.3981 c -3.954,-2.0571 -4.713,-7.5916 -2.358,-11.0241 1.625,-2.3673 4.035,-3.1436 6.794,-2.7119 2.593,0.4056 4.205,2.0474 5.002,4.4917 0.393,1.2088 0.262,3.8553 0.262,3.8553 0,0 -6.608,0 -9.879,0 -0.099,1.3767 0.599,2.4769 1.865,3.0666 1.447,0.674 2.888,0.5028 4.307,-0.0752 0.387,-0.1577 0.821,-0.3876 1.219,-0.5921 0.274,-0.1415 0.612,-0.0604 0.792,0.1908 l 0.61,0.8471 c 0.235,0.3258 0.168,0.779 -0.15,1.0237 -0.247,0.1892 -0.64,0.4299 -0.777,0.5293 -0.178,0.1282 -0.722,0.3988 -0.722,0.3988 0,0 -0.316,0.1841 -0.741,0.3071 -1.026,0.297 -2.307,0.5166 -3.523,0.4193 -0.983,-0.0785 -1.918,-0.4083 -2.701,-0.7264 z m 6.55,-7.6997 c -0.1,-2.2207 -1.591,-3.5906 -3.622,-3.4511 -1.908,0.131 -3.288,1.5844 -3.157,3.451 1.717,0 3.445,0 5.412,10e-5 0.454,0 0.908,0 1.367,0 z M 36.6739,51.9864 C 32.7195,49.9293 31.96,44.3949 34.316,40.9623 c 1.6249,-2.3673 4.0346,-3.1436 6.7943,-2.7118 2.5923,0.4056 4.2045,2.0473 5.0009,4.4916 0.3939,1.2089 0.2623,3.8553 0.2623,3.8553 0,0 -6.6085,0 -9.8788,0 -0.099,1.3767 0.5992,2.4769 1.865,3.0667 1.4464,0.674 2.8875,0.5028 4.3073,-0.0753 0.3874,-0.1577 0.8209,-0.3876 1.2185,-0.5921 0.2751,-0.1415 0.6123,-0.0604 0.7929,0.1908 l 0.6095,0.8471 c 0.2345,0.3258 0.168,0.779 -0.1503,1.0238 -0.246,0.1891 -0.6399,0.4298 -0.7774,0.5293 -0.1771,0.1281 -0.7212,0.3987 -0.7212,0.3987 0,0 -0.316,0.1841 -0.7411,0.3071 -1.0263,0.297 -2.3065,0.5166 -3.5231,0.4194 -0.9835,-0.0786 -1.9182,-0.4084 -2.7009,-0.7265 z m 6.5498,-7.6997 c -0.0997,-2.2207 -1.5909,-3.5906 -3.622,-3.4511 -1.908,0.1311 -3.2878,1.5845 -3.1569,3.451 1.7171,0 3.4449,0 5.4122,1e-4 0.454,0 0.9081,0 1.3667,0 z m 27.1694,7.5922 c -3.9545,-2.057 -4.714,-7.5915 -2.3579,-11.0241 1.6249,-2.3673 4.0346,-3.1436 6.7942,-2.7118 2.5923,0.4056 4.2045,2.0474 5.0009,4.4916 0.3939,1.2089 0.2624,3.8553 0.2624,3.8553 0,0 -6.6085,0 -9.8788,0 -0.0991,1.3767 0.5991,2.4769 1.8649,3.0667 1.4464,0.674 2.8875,0.5028 4.3073,-0.0752 0.3874,-0.1577 0.821,-0.3876 1.2185,-0.5922 0.2751,-0.1414 0.6124,-0.0603 0.793,0.1909 l 0.6095,0.847 c 0.2345,0.3259 0.1679,0.779 -0.1503,1.0238 -0.2461,0.1892 -0.6399,0.4298 -0.7775,0.5293 -0.177,0.1282 -0.7212,0.3987 -0.7212,0.3987 0,0 -0.316,0.1841 -0.7411,0.3071 -1.0262,0.2971 -2.3065,0.5166 -3.5231,0.4194 -0.9835,-0.0786 -1.9182,-0.4083 -2.7008,-0.7265 z m 6.5498,-7.6997 c -0.0998,-2.2207 -1.5909,-3.5906 -3.6221,-3.451 -1.9079,0.131 -3.2878,1.5844 -3.1568,3.4509 1.7171,0 3.4449,0 5.4121,1e-4 0.4541,0 0.9081,0 1.3668,0 z m 46.5351,7.729 c -3.954,-2.057 -4.714,-7.5915 -2.358,-11.0241 1.625,-2.3673 4.035,-3.1436 6.794,-2.7118 2.593,0.4056 4.205,2.0474 5.002,4.4917 0.393,1.2088 0.261,3.8552 0.261,3.8552 0,0 -6.608,0 -9.878,0 -0.1,1.3766 0.599,2.4769 1.864,3.0667 1.447,0.674 2.889,0.5028 4.308,-0.0752 0.387,-0.1577 0.821,-0.3876 1.219,-0.5921 0.274,-0.1415 0.611,-0.0604 0.792,0.1908 l 0.61,0.847 c 0.234,0.3259 0.168,0.779 -0.151,1.0238 -0.246,0.1892 -0.64,0.4298 -0.776,0.5294 -0.178,0.1281 -0.722,0.3986 -0.722,0.3986 0,0 -0.316,0.1841 -0.741,0.3071 -1.026,0.2971 -2.307,0.5166 -3.523,0.4194 -0.983,-0.0786 -1.918,-0.4083 -2.701,-0.7265 z m 6.55,-7.6997 c -0.1,-2.2207 -1.591,-3.5906 -3.622,-3.451 -1.908,0.131 -3.288,1.5843 -3.157,3.4509 1.717,0 3.445,0 5.412,1e-4 0.454,0 0.908,0 1.367,0 z m -241.206,-6.8471 c 2.02,0 3.861,0.7722 5.244,2.0373 l -2.09,2.5384 c -0.766,-0.6837 -2.05,-1.0996 -3.154,-1.0996 -2.38,0 -4.31,1.931 -4.31,4.3103 0,2.3793 1.93,4.3102 4.31,4.3102 1.125,0 2.598,-0.4508 3.366,-1.1582 l -0.002,0.0185 1.996,2.175 0.001,0.0068 c -1.415,1.4712 -3.161,2.4058 -5.361,2.4058 -4.291,0 -7.772,-3.482 -7.772,-7.7723 0,-4.2902 3.481,-7.7722 7.772,-7.7722 z m 3.154,4.5757 c 0.005,0.0039 0.008,0.0078 0.013,0.0118 h -0.019 l -0.002,-0.0024 z m 5.253,-8.3969 c 0,-0.1948 0.078,-0.3817 0.215,-0.5195 0.138,-0.1377 0.325,-0.2151 0.52,-0.2151 h 1.679 c 0.165,0 0.323,0.0655 0.4405,0.1822 0.1162,0.1168 0.1817,0.275 0.1817,0.4401 0,2.4709 0,7.4876 0,7.4876 0.1143,-0.1194 0.3068,-0.2986 0.6058,-0.5177 0.297,-0.2171 1.0328,-0.6653 1.0328,-0.6653 0,0 0.3214,-0.1207 0.6021,-0.2222 0.2807,-0.1015 0.6009,-0.0974 0.6009,-0.0974 l 0.2574,-0.0383 0.7487,-0.0942 c 0,0 0.327,-0.028 0.4434,-0.028 0.2536,0 0.4714,-0.0047 0.7078,0.028 1.0709,0.1483 1.9971,0.6377 2.7816,1.2709 0.5316,0.4291 0.9331,0.9323 1.249,1.5393 0.2374,0.4556 0.4617,0.9698 0.4617,1.5547 0,0.2862 0,0.6919 0,0.9279 h 0.0019 v 7.8854 c 0,0.3565 -0.2889,0.6453 -0.6452,0.6453 h -1.583 c -0.3398,0 -0.6154,-0.2754 -0.6154,-0.6154 0,-2.551 0,-7.7305 0,-7.7305 -0.0156,0.0025 -0.0198,0.0057 -0.0198,0.0057 l -0.233,-1.0319 c 0,0 -0.4459,-0.8042 -0.7752,-1.101 -0.647,-0.5825 -1.6533,-0.6794 -2.2946,-0.6794 -2.173,0 -3.3259,2.8123 -3.3259,2.8123 0,0 0,1e-4 -0.001,2e-4 0,0 0,5.2183 0,7.7885 0,0.3004 -0.2433,0.5438 -0.5432,0.5438 h -1.977 c -0.285,0 -0.516,-0.2313 -0.516,-0.5165 z m 17.3363,6.5416 c 0,-0.2428 0.1969,-0.4397 0.4397,-0.4397 h 2.1915 c 0.2491,0 0.4512,0.202 0.4512,0.4512 0,0.2454 0,0.7434 0,0.7434 0.1157,-0.1211 0.3108,-0.3031 0.6151,-0.5254 0.3015,-0.2204 1.0476,-0.6754 1.0476,-0.6754 0,0 0.3268,-0.1226 0.6118,-0.2255 0.2849,-0.1031 0.61,-0.0989 0.61,-0.0989 l 0.2612,-0.0389 0.7601,-0.0957 c 0,0 0.3319,-0.0284 0.45,-0.0284 0.2576,0 0.4786,-0.0048 0.7186,0.0284 1.0872,0.1506 2.0273,0.6474 2.8238,1.2902 0.5396,0.4356 0.9471,0.9465 1.2679,1.5625 0.2409,0.4627 0.4686,0.9845 0.4686,1.5784 0,0.2905 0,0.7024 0,0.9419 h 0.002 v 8.2159 c 0,0.2454 -0.1988,0.4441 -0.444,0.4441 h -1.9721 c -0.2599,0 -0.4705,-0.2106 -0.4705,-0.4705 0,-2.6405 0,-8.0018 0,-8.0018 -0.0159,0.0025 -0.0202,0.0058 -0.0202,0.0058 l -0.2365,-1.0475 c 0,0 -0.4527,-0.8165 -0.787,-1.1177 -0.6567,-0.5914 -1.6783,-0.6898 -2.3294,-0.6898 -2.2063,0 -3.3761,2.855 -3.3761,2.855 0,0 -3e-4,0 -9e-4,2e-4 0,0 0,5.3789 0,8.0284 0,0.2335 -0.1894,0.4228 -0.4229,0.4228 h -2.2241 c -0.2405,0 -0.4354,-0.195 -0.4354,-0.4354 z m 23.7712,-2.1843 c 4.1615,0 7.5389,3.3775 7.5389,7.539 0,4.1615 -3.3774,7.539 -7.5389,7.539 -4.1615,0 -7.539,-3.3775 -7.539,-7.539 0,-4.1615 3.3775,-7.539 7.539,-7.539 z m -4.526,7.539 c 0,2.4983 2.0277,4.526 4.526,4.526 2.4984,0 4.526,-2.0277 4.526,-4.526 0,-2.4983 -2.0276,-4.5259 -4.526,-4.5259 -2.4983,0 -4.526,2.0276 -4.526,4.5259 z m 29.5491,-7.4608 c 4.1615,0 7.539,3.3775 7.539,7.539 0,4.1615 -3.3775,7.539 -7.539,7.539 -4.1615,0 -7.539,-3.3775 -7.539,-7.539 0,-4.1615 3.3775,-7.539 7.539,-7.539 z m -4.526,7.539 c 0,2.4983 2.0277,4.5259 4.526,4.5259 2.4984,0 4.526,-2.0276 4.526,-4.5259 0,-2.4983 -2.0276,-4.526 -4.526,-4.526 -2.4983,0 -4.526,2.0277 -4.526,4.526 z m -9.483,-11.8307 c 0,-0.4399 0.3566,-0.7964 0.7964,-0.7964 h 1.2946 c 0.4398,0 0.7963,0.3565 0.7963,0.7964 v 18.6717 c 0,0.4975 -0.4031,0.9006 -0.9006,0.9006 h -1.1382 c -0.4686,0 -0.8485,-0.3799 -0.8485,-0.8484 z m 25.0536,10.8913 c -0.5203,-1.4259 -0.6065,-2.8024 -0.2961,-4.2006 0.9709,-4.3733 5.8164,-5.6682 8.6078,-3.345 0.1022,0.085 0.2303,0.1388 0.4279,0.2552 0.0532,-0.2693 0.1234,-0.7582 0.179,-1.1324 0.0376,-0.2532 0.2543,-0.4411 0.5103,-0.4425 0.2579,-0.0012 0.5146,0 0.7817,0 0.2549,0 0.6201,0 0.9255,0 0.1236,10e-5 0.2422,0.0492 0.3295,0.1365 0.0874,0.0875 0.1364,0.2059 0.1364,0.3295 0,0.3506 -10e-5,0.8437 10e-5,1.0622 0.0011,1.2796 0.012,2.5034 0,3.783 -0.0081,0.8613 0.0122,1.7397 0,2.6196 -0.0149,1.0693 -0.1323,2.1408 -0.1327,3.1873 -4e-4,1.009 -0.1074,1.9933 -0.5104,2.9396 -0.7166,1.6828 -1.9942,2.733 -3.7391,3.082 -1.5825,0.3163 -3.2149,0.3078 -4.7952,-0.1019 -0.5762,-0.1494 -1.2042,-0.4295 -1.7762,-0.6907 -0.2346,-0.1071 -0.344,-0.3793 -0.2489,-0.6189 l 0.566,-1.4269 c 0.0401,-0.1014 0.1201,-0.182 0.2212,-0.223 0.1011,-0.0412 0.2146,-0.0392 0.3141,0.0054 0.2737,0.1225 0.5695,0.255 0.8297,0.3703 1.1735,0.5201 2.397,0.7253 3.6704,0.534 2.034,-0.3057 3.0916,-1.8438 2.7193,-3.9652 -0.0981,0.0252 -0.2139,0.0233 -0.2867,0.0783 -2.8073,2.1194 -6.3073,1.4387 -8.1119,-1.5846 -0.1097,-0.1839 -0.1955,-0.382 -0.3217,-0.6512 z m 8.8385,-1.2048 c 0.0842,-0.4191 0.2244,-0.8356 0.2433,-1.2577 0.1136,-2.5313 -2.1089,-4.3388 -4.4514,-3.6417 -1.5742,0.4685 -2.5182,1.839 -2.4812,3.6019 0.0357,1.698 1.0636,3.0621 2.5635,3.4291 1.4935,0.3653 3.354,-0.1753 4.1258,-2.1316 z m 46.9266,9.5177 c -0.4969,0.0179 -1.1582,0.0084 -1.8376,0.0174 -0.4347,0.0058 -0.8586,-0.0032 -1.2604,0 -0.1983,0.0016 -0.4043,-0.0067 -0.5778,-0.0068 -0.09,-1e-4 -0.176,-0.0026 -0.2571,-0.01 -0.005,-0.0048 -0.0137,-0.0104 -0.0073,-6e-4 0,0 0,-10e-5 0,-10e-5 0,0 0,0 0,10e-5 0,0 0,0 0,0 0,0 0,0 0,0 0,0 0,0 0,0 -0.042,-0.0127 -0.0539,-0.033 0,-10e-5 -0.0249,-0.0312 -3.7114,-5.0431 -5.37,-7.3196 -0.5722,-0.7853 -1.201,-1.1378 -2.3207,-0.7638 -0.1044,1.2987 -0.0326,2.6766 -0.0455,4.0488 -0.0129,1.3845 0.0645,2.5905 0.0645,4.0521 -1.1245,0 -2.3054,0 -3.3033,0 -0.0492,-0.1731 0,-3.4071 0,-3.4071 0,0 0,-2.182 0,-3.1779 0,-2.7438 0,-4.39 0,-4.39 0,0 0.0127,-2.1585 0,-4.3901 -0.0101,-1.787 -0.0066,-2.6637 -0.0016,-3.9757 8e-4,-0.2291 0.1868,-0.4142 0.4158,-0.4141 0.1181,0 0.2457,0 0.3578,-1e-4 2.5802,-0.0033 5.1853,-0.0691 7.7636,0 1.0434,0.0279 2.0636,-0.077 3.0656,0.2144 2.4361,0.7085 3.6905,2.3763 3.86,4.9152 0.1607,2.4071 -0.9886,4.4977 -3.1183,5.487 -0.7576,0.3519 -1.6029,0.5172 -2.4116,0.7557 -0.27,0.0796 -0.5509,0.1219 -1.0303,0.2251 1.9629,2.7228 4.0261,5.5323 6.0152,8.1402 z m -3.9402,0 c 0,0 0,0 10e-5,0 -0.0017,1e-4 -0.0317,-0.0031 -10e-5,0 z m 0.002,0.001 c -6e-4,-3e-4 -0.0012,-7e-4 -0.0019,-0.001 0,0 0,0 0,0 0,0 0,0 0,0 0.0022,5e-4 0.0026,9e-4 0.0019,0.001 z M 26.1746,36.5117 c -0.8575,-0.1832 -1.7083,-0.4694 -2.574,-0.526 -1.3857,-0.0907 -2.7814,-0.0352 -4.1728,-0.0267 -0.2801,0.0018 -0.5598,0.07 -0.8566,0.1097 0,1.8614 0,3.6491 0,5.4914 0.4126,0.0295 0.7409,0.0766 1.0685,0.0724 1.6855,-0.0215 3.3736,-0.0078 5.0554,-0.103 1.1148,-0.0632 2.0721,-0.5585 2.4431,-1.6994 0.391,-1.2025 0.271,-2.3397 -0.9636,-3.3184 z m 0.0546,16.3765 c 0,0 0,0 0,0 0,1e-4 0,1e-4 0,0 z M 92.4797,41.0714 c 0,0.0963 -0.0383,0.1887 -0.1064,0.2568 -0.0682,0.0681 -0.1607,0.1062 -0.257,0.1061 -0.1053,-1e-4 -0.2632,-1e-4 -0.3193,10e-4 -0.3737,0.0072 -0.4091,-0.0116 -0.8142,0 -0.8195,0.0233 -1.7224,-0.0076 -2.5705,-0.0251 -0.1196,-0.0026 -0.2351,0.0432 -0.3206,0.127 -0.0855,0.0836 -0.1336,0.1982 -0.1336,0.3179 V 52.119 c 0,0.1744 -0.1414,0.3157 -0.3157,0.3157 h -2.3648 c -0.1963,0 -0.3554,-0.1591 -0.3554,-0.3554 V 41.9198 c 0,-0.2666 -0.2162,-0.4828 -0.4828,-0.4828 h -1.7873 c -0.2413,0 -0.4369,-0.1956 -0.4369,-0.4368 v -2.0086 c 0,-0.2163 0.1754,-0.3916 0.3916,-0.3916 h 1.8385 c 0.1161,0 0.2275,-0.0463 0.3094,-0.1286 0.0818,-0.0823 0.1277,-0.1938 0.1272,-0.3098 -0.0016,-0.3884 -0.0066,-0.8155 0.0088,-1.1769 0.0302,-0.7173 0.0177,-1.4462 0.1466,-2.1476 0.4782,-2.6025 2.9463,-4.1857 5.5148,-3.5458 0.8401,0.2093 1.7556,0.5115 2.6106,0.794 0.0714,0.0236 0.1297,0.0757 0.1612,0.144 0.0314,0.0682 0.0331,0.1465 0.0047,0.216 l -0.8409,2.0579 c -0.0544,0.1329 -0.1994,0.2046 -0.3382,0.1669 -0.599,-0.1626 -1.2454,-0.3624 -1.8266,-0.4488 -1.5063,-0.2241 -2.2689,0.3878 -2.3661,1.8868 -0.0421,0.6507 -0.0305,1.3679 -0.0173,2.0415 0.0045,0.2378 0.1993,0.4276 0.437,0.4263 l 3.6847,-0.0201 c 0.1108,-7e-4 0.2173,0.0429 0.2957,0.1211 0.0786,0.078 0.1228,0.1842 0.1228,0.295 z m -43.6206,4.4237 c 0.1619,-2.8752 1.2329,-5.1303 3.7735,-6.4329 2.2702,-1.1639 4.5479,-1.1938 6.7069,0.3596 0.1017,0.0731 0.2158,0.1294 0.326,0.1901 0.0365,0.0202 0.0791,0.0293 0.1217,0.0446 0.2068,-0.0646 0.2273,-0.1659 0.2493,-0.287 0.0324,-0.1783 -0.0015,-0.3994 0,-0.6089 0.013,-1.8127 0.0033,-4.1932 5e-4,-6.2585 -10e-5,-0.0441 0.0174,-0.0863 0.0485,-0.1175 0.0311,-0.0311 0.0733,-0.0486 0.1174,-0.0486 h 2.9574 c 0.0455,0 0.0889,0.0182 0.1209,0.0505 0.0318,0.0323 0.0494,0.0761 0.0487,0.1216 L 63.0404,52.72 c -0.0011,0.0831 -0.0689,0.15 -0.1521,0.15 h -2.6924 c -0.0883,0 -0.16,-0.0712 -0.1607,-0.1593 -0.0023,-0.2828 -0.0047,-0.6173 0.0013,-0.8567 0.0035,-0.1401 0.0211,-0.2859 0,-0.3607 -0.0535,0 -0.0644,-0.01 -0.1408,-0.0165 -0.0764,-0.0067 -0.1283,-0.034 -0.1647,-0.0099 -4.7267,3.124 -10.1697,0.5633 -10.8271,-5.0991 z m 3.4799,1.8856 c 0.6012,1.6316 1.8231,2.5 3.5493,2.6076 1.7079,0.1064 3.0862,-0.535 3.9084,-2.0636 1.2376,-2.3003 0.6013,-6.4043 -3.5474,-6.8044 -3.8733,0.0939 -4.8249,3.7781 -3.9103,6.2604 z m 83.695,-1.9638 c 0.163,-2.8752 1.234,-5.1303 3.774,-6.4328 2.271,-1.1639 4.548,-1.1938 6.707,0.3595 0.101,0.0731 0.216,0.1294 0.326,0.1901 0.036,0.0201 0.079,0.0294 0.122,0.0446 0.206,-0.0646 0.227,-0.1659 0.249,-0.2869 0.033,-0.1784 -0.002,-0.3995 0,-0.609 0.013,-1.8126 0.003,-4.1932 0,-6.2585 0,-0.044 0.018,-0.0863 0.049,-0.1174 0.031,-0.0312 0.073,-0.0487 0.117,-0.0487 h 2.958 c 0.045,0 0.089,0.0182 0.12,0.0505 0.032,0.0324 0.05,0.0762 0.049,0.1216 l -0.289,20.2119 c -0.001,0.0832 -0.07,0.15 -0.153,0.15 h -2.691 c -0.089,0 -0.161,-0.0711 -0.162,-0.1593 -0.002,-0.2827 -0.005,-0.6174 0.002,-0.8567 0.003,-0.1401 0.021,-0.2859 0,-0.3607 -0.053,0 -0.064,-0.01 -0.141,-0.0166 -0.077,-0.0066 -0.128,-0.0338 -0.165,-0.0098 -4.727,3.124 -10.169,0.5634 -10.827,-5.0991 z m 3.481,1.8857 c 0.601,1.6315 1.822,2.4999 3.549,2.6075 1.708,0.1064 3.086,-0.535 3.908,-2.0636 1.238,-2.3003 0.602,-6.4043 -3.547,-6.8044 -3.874,0.0939 -4.825,3.7782 -3.91,6.2605 z m -36.05,-7.2802 c 0,-0.2424 0.197,-0.4389 0.439,-0.4389 h 2.193 c 0.249,0 0.45,0.2017 0.45,0.4503 0,0.2457 0,0.7443 0,0.7443 0.116,-0.1211 0.311,-0.3031 0.616,-0.5254 0.301,-0.2204 1.047,-0.6755 1.047,-0.6755 0,0 0.326,-0.1225 0.612,-0.2255 0.285,-0.103 0.609,-0.0988 0.609,-0.0988 l 0.262,-0.0389 0.76,-0.0957 c 0,0 0.332,-0.0284 0.45,-0.0284 0.258,0 0.479,-0.0048 0.719,0.0284 1.087,0.1506 2.027,0.6473 2.824,1.2902 0.539,0.4355 0.947,0.9465 1.267,1.5625 0.241,0.4627 0.469,0.9846 0.469,1.5784 0,0.2905 0,0.7024 0,0.9419 h 0.002 v 8.2168 c 0,0.2447 -0.198,0.4432 -0.444,0.4432 h -1.973 c -0.259,0 -0.469,-0.2102 -0.469,-0.4696 0,-2.6409 0,-8.0027 0,-8.0027 -0.017,0.0024 -0.021,0.0058 -0.021,0.0058 l -0.236,-1.0477 c 0,0 -0.453,-0.8164 -0.788,-1.1176 -0.656,-0.5913 -1.677,-0.6897 -2.329,-0.6897 -2.206,0 -3.376,2.8549 -3.376,2.8549 0,0 0,1e-4 -0.001,2e-4 0,0 0,5.3796 0,8.0292 0,0.2331 -0.189,0.422 -0.422,0.422 h -2.226 c -0.239,0 -0.434,-0.1945 -0.434,-0.4345 z m -114.1475,-3.679 c -0.0528,-0.0932 -0.0521,-0.2074 0.0018,-0.3001 0.0539,-0.0925 0.1529,-0.1495 0.26,-0.1495 h 1.3934 c 0.61527,0 1.18455,0.3258 1.49627,0.8564 l 3.69572,6.289 3.590326,-6.2755 C 0.0621914,36.2268 0.633365,35.8956 1.25193,35.8956 h 1.49098 c 0.10628,0 0.20455,0.0565 0.25796,0.1484 0.05341,0.0919 0.05392,0.2053 0.00133,0.2976 l -9.39079,16.4911 c -0.25348,0.445 -0.72631,0.72 -1.23853,0.72 h -1.77594 c -0.09249,0 -0.17797,-0.0493 -0.22438,-0.1293 -0.0464,-0.08 -0.04669,-0.1787 -7.6e-4,-0.2589 l 3.79607,-6.6351 c 0.28909,-0.5053 0.2902,-1.1256 0.00294,-1.6319 z M 97.3372,32.2453 c 1.1987,0 2.1709,0.9726 2.1709,2.171 0,1.1984 -0.9722,2.171 -2.1709,2.171 -1.1984,0 -2.1709,-0.9726 -2.1709,-2.171 0,-1.1984 0.9725,-2.171 2.1709,-2.171 z m -1.4929,7.5272 c 0,-0.2151 0.1744,-0.3894 0.3894,-0.3894 h 2.1576 c 0.2423,0 0.4387,0.1966 0.4387,0.4392 v 12.9039 c 0,0.2374 -0.1925,0.4299 -0.4299,0.4299 h -2.155 c -0.2214,0 -0.4008,-0.1795 -0.4008,-0.4008 z"
         fill="#ffffff"
         transform="matrix(1,0,0,1.00237,486.803,377.399)"
         id="path4" />
    </g>
  </g>
</svg>
